<?xml version="1.0" encoding="UTF-8"?>
<svg version="1.1" xmlns="http://www.w3.org/2000/svg" width="484" height="515" viewBox="0 0 484 515">
<path d="M0 0 C0.7734375 0.495 0.7734375 0.495 1.5625 1 C1.5625 1.66 1.5625 2.32 1.5625 3 C2.2225 3 2.8825 3 3.5625 3 C5.49959638 6.25753924 5.79965445 8.65609928 5.7578125 12.421875 C5.75136719 13.44667969 5.74492187 14.47148437 5.73828125 15.52734375 C5.71314453 17.12255859 5.71314453 17.12255859 5.6875 18.75 C5.67847656 19.82894531 5.66945313 20.90789062 5.66015625 22.01953125 C5.6366142 24.67978249 5.60074397 27.33991949 5.5625 30 C10.1825 30 14.8025 30 19.5625 30 C19.53929687 28.38609375 19.51609375 26.7721875 19.4921875 25.109375 C19.47342832 22.98958796 19.45522828 20.86979591 19.4375 18.75 C19.42074219 17.68652344 19.40398437 16.62304688 19.38671875 15.52734375 C19.38027344 14.50253906 19.37382812 13.47773438 19.3671875 12.421875 C19.35671387 11.47924805 19.34624023 10.53662109 19.33544922 9.56542969 C19.57130787 6.90048059 20.20588341 5.28136908 21.5625 3 C22.2225 3 22.8825 3 23.5625 3 C23.5625 2.34 23.5625 1.68 23.5625 1 C27.40072178 -0.80622201 30.32615622 -1.51873597 34.5625 -1 C38.53352173 1.13824247 40.9479727 2.77652416 42.5625 7 C42.78955078 9.56542969 42.78955078 9.56542969 42.7578125 12.421875 C42.74814453 13.95908203 42.74814453 13.95908203 42.73828125 15.52734375 C42.71314453 17.12255859 42.71314453 17.12255859 42.6875 18.75 C42.67847656 19.82894531 42.66945313 20.90789062 42.66015625 22.01953125 C42.63661305 24.67991278 42.60372799 27.33984336 42.5625 30 C43.40059204 29.9685791 43.40059204 29.9685791 44.25561523 29.93652344 C46.83688673 29.85233706 49.41786824 29.80102307 52 29.75 C52.87849609 29.71648437 53.75699219 29.68296875 54.66210938 29.6484375 C62.12017752 29.53835531 67.96497726 31.15246929 73.8671875 35.82421875 C82.32026428 45.85436209 81.95162357 55.44716202 81.5625 68 C82.19752441 67.98428955 82.83254883 67.9685791 83.48681641 67.95239258 C86.3869523 67.8897141 89.28694524 67.85090583 92.1875 67.8125 C93.18652344 67.78736328 94.18554688 67.76222656 95.21484375 67.73632812 C100.75341443 67.68130921 104.81571171 67.78667091 109.5625 71 C111.98416168 73.90599402 112.52580364 75.66361668 112.9375 79.4375 C112.52575198 83.34910621 111.7038801 85.71145198 109.5625 89 C106.34502407 91.11666635 103.72110531 91.23572984 99.921875 91.1953125 C98.85195313 91.18886719 97.78203125 91.18242187 96.6796875 91.17578125 C95.01292969 91.15064453 95.01292969 91.15064453 93.3125 91.125 C91.62253906 91.11146484 91.62253906 91.11146484 89.8984375 91.09765625 C87.11970078 91.07410763 84.34107341 91.03823725 81.5625 91 C81.5625 95.95 81.5625 100.9 81.5625 106 C83.16480469 105.96519531 84.76710938 105.93039063 86.41796875 105.89453125 C88.52863534 105.86638903 90.63931328 105.83908933 92.75 105.8125 C93.80509766 105.78736328 94.86019531 105.76222656 95.94726562 105.73632812 C96.96884766 105.72666016 97.99042969 105.71699219 99.04296875 105.70703125 C100.44905396 105.68346558 100.44905396 105.68346558 101.88354492 105.65942383 C105.0934204 106.06749603 106.98156549 107.07577546 109.5625 109 C109.5625 109.66 109.5625 110.32 109.5625 111 C110.2225 111 110.8825 111 111.5625 111 C113.08994622 115.58233867 113.33697996 119.41583644 111.1875 123.8125 C108.82103278 126.99812895 107.45223052 128.32624619 103.5625 129 C101.82964352 129.07952806 100.09402614 129.10774143 98.359375 129.09765625 C97.3796875 129.09443359 96.4 129.09121094 95.390625 129.08789062 C94.37484375 129.07951172 93.3590625 129.07113281 92.3125 129.0625 C90.765625 129.05573242 90.765625 129.05573242 89.1875 129.04882812 C86.64577427 129.03706088 84.10416681 129.02062011 81.5625 129 C81.59730469 130.12277344 81.63210938 131.24554688 81.66796875 132.40234375 C81.88790055 142.50341673 81.8535419 151.52076962 75.5625 160 C74.9025 160 74.2425 160 73.5625 160 C73.5625 160.66 73.5625 161.32 73.5625 162 C66.871805 166.51112691 61.50138741 167.76238693 53.5 167.8125 C52.53900391 167.83763672 51.57800781 167.86277344 50.58789062 167.88867188 C48.24568074 167.9469358 45.90531292 167.98365703 43.5625 168 C43.54791748 168.64026123 43.53333496 169.28052246 43.51831055 169.94018555 C43.44358618 172.85654831 43.34700707 175.77179687 43.25 178.6875 C43.22744141 179.69490234 43.20488281 180.70230469 43.18164062 181.74023438 C42.8423316 191.08665569 42.8423316 191.08665569 39.5625 195 C36.66049637 197.33772514 34.83949106 197.96474659 31.125 198.4375 C26.87904773 197.91606726 24.82432423 196.73082959 21.5625 194 C19.52037782 190.81646352 19.32560267 188.32075946 19.3671875 184.578125 C19.37363281 183.55332031 19.38007813 182.52851563 19.38671875 181.47265625 C19.41185547 179.87744141 19.41185547 179.87744141 19.4375 178.25 C19.44652344 177.17105469 19.45554687 176.09210938 19.46484375 174.98046875 C19.4883858 172.32021751 19.52425603 169.66008051 19.5625 167 C14.9425 167 10.3225 167 5.5625 167 C5.60890625 168.59070313 5.6553125 170.18140625 5.703125 171.8203125 C5.74065257 173.92185618 5.77705167 176.02342022 5.8125 178.125 C5.84601563 179.17171875 5.87953125 180.2184375 5.9140625 181.296875 C5.99307986 187.53924618 5.79211608 191.27417198 1.5625 196 C-1.8469043 198.58644464 -5.2761449 198.36503115 -9.4375 198 C-13.14589062 196.3143679 -15.31427167 194.45706573 -17.4375 191 C-17.77807617 188.34277344 -17.77807617 188.34277344 -17.73046875 185.359375 C-17.72080078 184.28945313 -17.71113281 183.21953125 -17.70117188 182.1171875 C-17.67603516 181.00601563 -17.65089844 179.89484375 -17.625 178.75 C-17.61146484 177.62335938 -17.59792969 176.49671875 -17.58398438 175.3359375 C-17.54865645 172.55680736 -17.4993252 169.77864637 -17.4375 167 C-18.03175781 167.02094727 -18.62601562 167.04189453 -19.23828125 167.06347656 C-21.97117705 167.14741854 -24.70380057 167.19890281 -27.4375 167.25 C-28.37207031 167.28351563 -29.30664062 167.31703125 -30.26953125 167.3515625 C-37.95417621 167.45904005 -42.98149463 165.86903303 -48.8984375 160.95703125 C-57.62819291 151.17614202 -56.7125756 141.45481167 -56.4375 129 C-57.45904175 129.00785522 -57.45904175 129.00785522 -58.5012207 129.01586914 C-61.58413777 129.03664458 -64.6670401 129.04966198 -67.75 129.0625 C-69.3577832 129.07506836 -69.3577832 129.07506836 -70.99804688 129.08789062 C-72.02607422 129.09111328 -73.05410156 129.09433594 -74.11328125 129.09765625 C-75.5350769 129.10551147 -75.5350769 129.10551147 -76.9855957 129.11352539 C-79.4375 129 -79.4375 129 -82.4375 128 C-82.4375 127.34 -82.4375 126.68 -82.4375 126 C-83.4275 125.67 -84.4175 125.34 -85.4375 125 C-87.44404153 122.03579093 -87.63761865 119.9377648 -87.1875 116.4375 C-87.09984375 115.67308594 -87.0121875 114.90867187 -86.921875 114.12109375 C-86.4375 112 -86.4375 112 -84.4375 109 C-83.7775 109 -83.1175 109 -82.4375 109 C-82.4375 108.34 -82.4375 107.68 -82.4375 107 C-79.29899936 106.07446257 -76.50069222 105.88335353 -73.234375 105.90234375 C-72.2546875 105.90556641 -71.275 105.90878906 -70.265625 105.91210938 C-69.24984375 105.92048828 -68.2340625 105.92886719 -67.1875 105.9375 C-65.640625 105.94426758 -65.640625 105.94426758 -64.0625 105.95117188 C-61.52080846 105.96293897 -58.97914682 105.9808739 -56.4375 106 C-56.4375 101.05 -56.4375 96.1 -56.4375 91 C-58.4175 91.495 -58.4175 91.495 -60.4375 92 C-63.73405456 92.15181019 -67.01604453 91.99867654 -70.3125 91.875 C-71.19808594 91.8646875 -72.08367187 91.854375 -72.99609375 91.84375 C-77.30141851 91.67692669 -80.52355626 91.41183478 -84.00390625 88.7265625 C-87.05090526 85.31274981 -87.41153353 83.55174157 -87.6015625 79.14453125 C-87.26199286 74.70587093 -85.25738708 72.72155378 -82.02734375 69.87890625 C-77.46004669 66.90361072 -72.31240183 67.57387426 -67.0625 67.75 C-66.04027344 67.76804687 -65.01804688 67.78609375 -63.96484375 67.8046875 C-61.45475251 67.85160509 -58.94662236 67.91723271 -56.4375 68 C-56.48970703 66.44152344 -56.48970703 66.44152344 -56.54296875 64.8515625 C-56.81257755 53.56863732 -56.37910568 44.71779769 -48.7421875 35.7890625 C-41.90644055 30.4826691 -35.34347267 29.42691814 -26.875 29.75 C-25.50504883 29.77707031 -25.50504883 29.77707031 -24.10742188 29.8046875 C-21.88296486 29.85127299 -19.66083033 29.91664515 -17.4375 30 C-17.4689209 29.00202393 -17.4689209 29.00202393 -17.50097656 27.98388672 C-17.58450609 24.94774698 -17.63627603 21.91184957 -17.6875 18.875 C-17.72101563 17.82828125 -17.75453125 16.7815625 -17.7890625 15.703125 C-17.86807986 9.46075382 -17.66711608 5.72582802 -13.4375 1 C-9.51630243 -1.97470161 -4.44207939 -1.82239154 0 0 Z M-32.4375 53 C-32.4375 83.03 -32.4375 113.06 -32.4375 144 C-17.608125 144.020625 -2.77875 144.04125 12.5 144.0625 C17.18952881 144.071604 21.87905762 144.08070801 26.71069336 144.09008789 C30.89929925 144.09343147 30.89929925 144.09343147 35.08790588 144.09544373 C36.95953102 144.09698346 38.83115514 144.10050898 40.70277405 144.10557556 C43.5309523 144.11285159 46.35906971 144.11390747 49.18725586 144.11352539 C50.44658762 144.11892255 50.44658762 144.11892255 51.73136044 144.12442875 C55.44978078 144.47646938 55.44978078 144.47646938 58.5625 143 C58.66300214 140.23598592 58.69866075 137.49692774 58.69189453 134.73242188 C58.69364685 133.86581436 58.69539917 132.99920685 58.69720459 132.1063385 C58.70162425 129.22712227 58.69868472 126.34796691 58.6953125 123.46875 C58.69598551 121.47717273 58.6969555 119.48559554 58.69821167 117.49401855 C58.6996888 113.31420105 58.69753361 109.13440487 58.69287109 104.95458984 C58.6871738 99.58397474 58.69045273 94.2134096 58.69644356 88.84279633 C58.70004877 84.7285728 58.69891077 80.61436121 58.69631577 76.50013733 C58.69564639 74.51929214 58.6964753 72.53844588 58.69879532 70.55760193 C58.70132119 67.79423124 58.69748218 65.03094266 58.69189453 62.26757812 C58.69493088 61.02700401 58.69493088 61.02700401 58.69802856 59.7613678 C59.03568749 56.07943275 59.03568749 56.07943275 57.5625 53 C54.76256693 52.9048051 51.98747184 52.87447363 49.18725586 52.88647461 C48.29503861 52.88635407 47.40282137 52.88623354 46.48356724 52.88610935 C43.58146781 52.88685865 40.67943177 52.89448763 37.77734375 52.90234375 C35.99125194 52.90381312 34.20515971 52.90483386 32.41906738 52.90539551 C25.77937171 52.91064899 19.13968524 52.92461007 12.5 52.9375 C-9.7440625 52.9684375 -9.7440625 52.9684375 -32.4375 53 Z " fill="#F6F8F9" transform="translate(229.4375,127)"/>
<path d="M0 0 C1.276474 -0.00956978 1.276474 -0.00956978 2.57873535 -0.01933289 C3.49441284 -0.02044571 4.41009033 -0.02155853 5.35351562 -0.02270508 C6.29658569 -0.02603348 7.23965576 -0.02936188 8.21130371 -0.03279114 C10.20515454 -0.0378535 12.19901384 -0.04019968 14.19287109 -0.04003906 C17.24786255 -0.0422278 20.30249422 -0.06039698 23.35742188 -0.0793457 C25.29361855 -0.08227927 27.22981695 -0.08426431 29.16601562 -0.08520508 C30.08169312 -0.09239059 30.99737061 -0.09957611 31.9407959 -0.10697937 C33.2172699 -0.10236443 33.2172699 -0.10236443 34.51953125 -0.09765625 C35.64180115 -0.09979378 35.64180115 -0.09979378 36.78674316 -0.10197449 C38.75976562 0.14526367 38.75976562 0.14526367 41.75976562 2.14526367 C42.13398743 4.15661621 42.13398743 4.15661621 42.13208008 6.6550293 C42.14142326 8.05658264 42.14142326 8.05658264 42.1509552 9.4864502 C42.14174545 10.49792114 42.13253571 11.50939209 42.12304688 12.55151367 C42.12379463 14.10497498 42.12379463 14.10497498 42.1245575 15.68981934 C42.12221417 17.88218095 42.11247053 20.0745451 42.09594727 22.2668457 C42.07236204 25.6315098 42.07538354 28.99538175 42.08203125 32.36010742 C42.07645457 34.48641425 42.06934476 36.61271773 42.06054688 38.73901367 C42.06191399 40.25622009 42.06191399 40.25622009 42.06330872 41.80407715 C42.0537767 42.73844604 42.04424469 43.67281494 42.03442383 44.63549805 C42.02981644 45.45997437 42.02520905 46.28445068 42.02046204 47.13391113 C41.75976562 49.14526367 41.75976562 49.14526367 39.75976562 51.14526367 C37.79310608 51.41941833 37.79310608 51.41941833 35.35766602 51.45166016 C34.44654556 51.46764755 33.53542511 51.48363495 32.59669495 51.50010681 C31.11700478 51.50815086 31.11700478 51.50815086 29.60742188 51.51635742 C28.09081215 51.52990013 28.09081215 51.52990013 26.54356384 51.54371643 C24.40252657 51.55824128 22.26144469 51.56711119 20.12036133 51.57080078 C16.83859817 51.58270443 13.55871013 51.63187533 10.27734375 51.68237305 C8.199879 51.69183587 6.12240266 51.69907158 4.04492188 51.70385742 C2.56826805 51.7331559 2.56826805 51.7331559 1.06178284 51.76304626 C-5.61767457 51.71864383 -5.61767457 51.71864383 -8.36035156 49.19262695 C-9.56774967 45.01095569 -9.65000694 41.16246291 -9.60351562 36.82885742 C-9.60401413 35.93538101 -9.60451263 35.0419046 -9.60502625 34.12135315 C-9.60269154 32.23778045 -9.59299868 30.35420428 -9.57641602 28.47070312 C-9.55278677 25.58915309 -9.55586428 22.70852687 -9.5625 19.8269043 C-9.55692398 17.9942165 -9.54981458 16.16153258 -9.54101562 14.32885742 C-9.54192703 13.46836288 -9.54283844 12.60786835 -9.54377747 11.72129822 C-9.53424545 10.91688797 -9.52471344 10.11247772 -9.51489258 9.28369141 C-9.51028519 8.57929428 -9.5056778 7.87489716 -9.50093079 7.14915466 C-9.1888388 4.75020212 -8.5563385 3.17378922 -7.24023438 1.14526367 C-4.48814535 0.22790066 -2.83735336 0.01445564 0 0 Z " fill="#FBFCFC" transform="translate(225.240234375,199.854736328125)"/>
<path d="M0 0 C2.5625 1.875 2.5625 1.875 4 4 C4.66 4.66 5.32 5.32 6 6 C6.66 6 7.32 6 8 6 C8 4.68 8 3.36 8 2 C9.65 2 11.3 2 13 2 C13 3.32 13 4.64 13 6 C16.72852449 6.95876344 19.26761694 6.82941846 23 6 C24.78147298 7.78147298 24.337761 10.45879772 24.5 12.875 C24.72347251 16.18718188 24.94792065 18.84376196 26 22 C27.32 21.67 28.64 21.34 30 21 C30.33 16.38 30.66 11.76 31 7 C32.32 6.67 33.64 6.34 35 6 C37.18926222 9.53050983 37.239285 12.39486154 37.1875 16.5 C37.18105469 17.6240625 37.17460937 18.748125 37.16796875 19.90625 C37.0295553 22.45563254 36.74334614 24.5737182 36 27 C34.10801281 27.27761216 32.21098334 27.52099115 30.3125 27.75 C29.25675781 27.88921875 28.20101562 28.0284375 27.11328125 28.171875 C23.06627875 27.94845203 21.69274023 27.00048197 19 24 C18.07421875 20.765625 18.07421875 20.765625 17.6875 17.25 C17.54699219 16.07953125 17.40648437 14.9090625 17.26171875 13.703125 C17.17535156 12.81109375 17.08898437 11.9190625 17 11 C16.01 11 15.02 11 14 11 C14.11351517 12.81325551 14.24112961 14.62563357 14.375 16.4375 C14.44460938 17.44683594 14.51421875 18.45617187 14.5859375 19.49609375 C14.72257812 20.32238281 14.85921875 21.14867187 15 22 C15.66 22.33 16.32 22.66 17 23 C17 24.32 17 25.64 17 27 C14.22856087 28.12910483 13.19975164 28.08085185 10.375 26.9375 C8 25 8 25 7.51171875 21.86328125 C7.56972656 20.69152344 7.62773437 19.51976562 7.6875 18.3125 C7.75517578 16.54326172 7.75517578 16.54326172 7.82421875 14.73828125 C7.88222656 13.83464844 7.94023437 12.93101562 8 12 C7.01 11.67 6.02 11.34 5 11 C5 10.34 5 9.68 5 9 C3.02 9 1.04 9 -1 9 C-1.33 7.68 -1.66 6.36 -2 5 C-4.31 5.33 -6.62 5.66 -9 6 C-8.67 6.99 -8.34 7.98 -8 9 C-5.44598152 10.24950052 -5.44598152 10.24950052 -2.4375 11.1875 C-1.42558594 11.53167969 -0.41367187 11.87585938 0.62890625 12.23046875 C1.41136719 12.48441406 2.19382812 12.73835938 3 13 C3 13.66 3 14.32 3 15 C3.66 15 4.32 15 5 15 C5.60520095 22.26241135 5.60520095 22.26241135 3 25.4375 C-1.63020821 27.84906677 -5.73121777 28.60500859 -10.8125 27.25 C-13.04041946 25.97690316 -14.52097467 25.10177284 -16 23 C-16.1875 20.3125 -16.1875 20.3125 -16 18 C-15.01 17.67 -14.02 17.34 -13 17 C-12.34 17.33 -11.68 17.66 -11 18 C-11 18.99 -11 19.98 -11 21 C-9.081875 21.309375 -9.081875 21.309375 -7.125 21.625 C-6.40570313 21.74101562 -5.68640625 21.85703125 -4.9453125 21.9765625 C-3.98238281 21.98816406 -3.98238281 21.98816406 -3 22 C-2.34 21.34 -1.68 20.68 -1 20 C-3.30237191 17.32865823 -5.11286689 16.49436417 -8.5 15.625 C-11.71160125 14.62072078 -12.82073074 14.20035976 -15.125 11.625 C-16.17178439 8.48464683 -16.18683698 7.08577615 -15 4 C-11.71003803 -1.53311786 -5.73312422 -0.89007408 0 0 Z " fill="#E0E7ED" transform="translate(308,384)"/>
<path d="M0 0 C1.65 0 3.3 0 5 0 C6.98 5.28 8.96 10.56 11 16 C12.93241047 11.10964131 12.93241047 11.10964131 14.85913086 6.21704102 C16.88888889 1.11111111 16.88888889 1.11111111 18 0 C19.78071246 -0.08726223 21.5648314 -0.10699041 23.34765625 -0.09765625 C24.42724609 -0.09443359 25.50683594 -0.09121094 26.61914062 -0.08789062 C28.32360352 -0.07532227 28.32360352 -0.07532227 30.0625 -0.0625 C31.77276367 -0.05573242 31.77276367 -0.05573242 33.51757812 -0.04882812 C36.34510351 -0.03699747 39.1725264 -0.0205141 42 0 C41.67 1.65 41.34 3.3 41 5 C37.37 5.33 33.74 5.66 30 6 C30 7.32 30 8.64 30 10 C33.3 10 36.6 10 40 10 C40.495 12.475 40.495 12.475 41 15 C37.26513121 15.5745952 33.78706732 16 30 16 C30 17.98 30 19.96 30 22 C33.63 22 37.26 22 41 22 C41.66 23.32 42.32 24.64 43 26 C42 27 42 27 40.23413086 27.11352539 C39.48526611 27.10828857 38.73640137 27.10305176 37.96484375 27.09765625 C36.87224243 27.09390991 36.87224243 27.09390991 35.75756836 27.09008789 C34.8269458 27.08098389 33.89632324 27.07187988 32.9375 27.0625 C28.5134375 27.0315625 28.5134375 27.0315625 24 27 C23.67 19.74 23.34 12.48 23 5 C21.88625 7.701875 20.7725 10.40375 19.625 13.1875 C19.10413818 14.45049927 19.10413818 14.45049927 18.57275391 15.73901367 C17.02937811 19.48524002 15.49437731 23.23386728 14 27 C12.02 27 10.04 27 8 27 C6.65649992 23.25356427 5.32698339 19.50231451 4 15.75 C3.6184375 14.68652344 3.236875 13.62304688 2.84375 12.52734375 C2.4828125 11.50253906 2.121875 10.47773438 1.75 9.421875 C1.41484375 8.47924805 1.0796875 7.53662109 0.734375 6.56542969 C0 4 0 4 0 0 Z " fill="#CCD5DC" transform="translate(98,384)"/>
<path d="M0 0 C1.98 0 3.96 0 6 0 C7.96938498 2.36085294 9.38172633 4.36899401 10.875 7 C11.2771875 7.66773438 11.679375 8.33546875 12.09375 9.0234375 C13.08210073 10.67068871 14.04371066 12.33393145 15 14 C15.33 9.38 15.66 4.76 16 0 C17.65 0 19.3 0 21 0 C22.74545605 1.74545605 22.1302316 4.16124217 22.1328125 6.53125 C22.13474609 8.21154297 22.13474609 8.21154297 22.13671875 9.92578125 C22.13285156 11.10527344 22.12898438 12.28476562 22.125 13.5 C22.13080078 15.26923828 22.13080078 15.26923828 22.13671875 17.07421875 C22.13542969 18.19441406 22.13414062 19.31460937 22.1328125 20.46875 C22.13168457 21.50451172 22.13055664 22.54027344 22.12939453 23.60742188 C22 26 22 26 21 27 C18.73828125 27.5 18.73828125 27.5 16 27 C14.12571214 24.6638447 12.67361142 22.56174947 11.1875 20 C10.78080078 19.33226562 10.37410156 18.66453125 9.95507812 17.9765625 C8.95383043 16.32744865 7.97474159 14.6649181 7 13 C6.12435592 15.98950363 5.91780862 18.57963862 6 21.6875 C6.03763031 23.12450738 6.04662859 24.56325645 6 26 C5.67 26.33 5.34 26.66 5 27 C3.35 27 1.7 27 0 27 C0 18.09 0 9.18 0 0 Z " fill="#E3ECEE" transform="translate(143,384)"/>
<path d="M0 0 C0.66902344 -0.03738281 1.33804688 -0.07476562 2.02734375 -0.11328125 C6.03696792 -0.18417834 7.5650901 0.21926038 10.671875 2.8359375 C11.35765625 3.67382812 12.0434375 4.51171875 12.75 5.375 C13.08 5.705 13.41 6.035 13.75 6.375 C13.87682623 8.84663686 13.93520251 11.27790611 13.9375 13.75 C13.94974609 14.43578125 13.96199219 15.1215625 13.97460938 15.828125 C13.98552331 19.56796797 13.8766842 21.1849737 11.75 24.375 C11.09 24.375 10.43 24.375 9.75 24.375 C9.75 25.035 9.75 25.695 9.75 26.375 C6.21615441 27.55294853 3.34722447 27.50764317 -0.375 27.5 C-2.26605469 27.50386719 -2.26605469 27.50386719 -4.1953125 27.5078125 C-7.25 27.375 -7.25 27.375 -8.25 26.375 C-8.34959621 24.53340977 -8.38080411 22.68803033 -8.3828125 20.84375 C-8.38410156 19.72355469 -8.38539063 18.60335938 -8.38671875 17.44921875 C-8.38285156 16.26972656 -8.37898437 15.09023438 -8.375 13.875 C-8.37886719 12.69550781 -8.38273438 11.51601563 -8.38671875 10.30078125 C-8.38542969 9.18058594 -8.38414062 8.06039063 -8.3828125 6.90625 C-8.38168457 5.87048828 -8.38055664 4.83472656 -8.37939453 3.76757812 C-8.11160932 -1.18392194 -3.99843098 0.08283002 0 0 Z M-2.25 5.375 C-2.25 10.985 -2.25 16.595 -2.25 22.375 C4.21670776 22.96764919 4.21670776 22.96764919 7.1875 20.9375 C9.50587974 17.13535723 9.52201236 13.71259522 8.75 9.375 C7.37283334 6.66392287 7.37283334 6.66392287 4.75 5.375 C2.44 5.375 0.13 5.375 -2.25 5.375 Z " fill="#D3DEE5" transform="translate(176.25,383.625)"/>
<path d="M0 0 C1.2065625 0.0309375 1.2065625 0.0309375 2.4375 0.0625 C2.46636537 4.37498609 2.48425255 8.68744762 2.5 13 C2.50837891 14.23169922 2.51675781 15.46339844 2.52539062 16.73242188 C2.53022461 18.4871582 2.53022461 18.4871582 2.53515625 20.27734375 C2.54301147 21.90337524 2.54301147 21.90337524 2.55102539 23.56225586 C2.4375 26.0625 2.4375 26.0625 1.4375 27.0625 C-0.3035849 27.35170706 -2.05683659 27.56926994 -3.8125 27.75 C-4.76640625 27.85699219 -5.7203125 27.96398437 -6.703125 28.07421875 C-9.85871146 28.06128602 -11.7766557 27.51807955 -14.5625 26.0625 C-17.12013988 22.56705884 -17.81600239 19.74449749 -17.625 15.5 C-17.10737751 12.21059254 -16.34920868 10.25868878 -13.9375 7.9375 C-9.87990858 5.68328255 -7.97929215 5.91413404 -3.5625 7.0625 C-3.583125 6.093125 -3.60375 5.12375 -3.625 4.125 C-3.54257968 0.08640438 -3.54257968 0.08640438 0 0 Z M-10.25 12.6875 C-12.01722318 15.88533241 -11.53859173 17.60863697 -10.5625 21.0625 C-9.9025 21.7225 -9.2425 22.3825 -8.5625 23.0625 C-5.78012345 22.65721099 -5.78012345 22.65721099 -3.5625 21.0625 C-3.08248164 16.31472252 -3.08248164 16.31472252 -4.9375 12.125 C-7.40330785 10.51274102 -8.12457332 10.64079282 -10.25 12.6875 Z " fill="#D6E0E7" transform="translate(363.5625,383.9375)"/>
<path d="M0 0 C3.41827315 2.3927912 4.66050439 3.82482288 5.8125 7.8125 C5.874375 8.534375 5.93625 9.25625 6 10 C3.6875 10.25 3.6875 10.25 1 10 C0.319375 9.01 0.319375 9.01 -0.375 8 C-1.95093953 5.58807151 -1.95093953 5.58807151 -5.5625 5.5625 C-7.2640625 5.7790625 -7.2640625 5.7790625 -9 6 C-11.67818441 10.01727661 -11.68882655 13.28026255 -11 18 C-9.51707157 20.73637301 -9.51707157 20.73637301 -7 22 C-4.34872531 22.16977494 -4.34872531 22.16977494 -2 21 C-0.63979849 19.03241727 -0.63979849 19.03241727 0 17 C1.98 17 3.96 17 6 17 C5.73212125 20.92888829 5.47562903 22.54876221 2.5625 25.3125 C-1.6443969 28.08289552 -3.81512892 28.18416008 -8.7421875 27.57421875 C-12.95922016 26.50172082 -14.87508224 23.55345786 -17.3125 20.1875 C-18.81612425 15.40324101 -18.54101232 10.8069416 -16.75 6.1875 C-12.88978758 -0.8436012 -7.48216044 -1.18606099 0 0 Z " fill="#CEDBE0" transform="translate(219,384)"/>
<path d="M0 0 C2.66796875 1.48046875 2.66796875 1.48046875 5 4 C5.61311187 6.93972578 5.4734686 9.76341331 5.3125 12.75 C5.28994141 13.54277344 5.26738281 14.33554687 5.24414062 15.15234375 C5.18540471 17.1023762 5.09572654 19.05143312 5 21 C3.08496326 21.22281874 1.16783494 21.42771076 -0.75 21.625 C-2.35101563 21.79902344 -2.35101563 21.79902344 -3.984375 21.9765625 C-7.07025699 22.00054604 -8.54260653 21.83870853 -11 20 C-12.42682927 13.85365854 -12.42682927 13.85365854 -11 11 C-10.34 11 -9.68 11 -9 11 C-9.515625 10.4225 -10.03125 9.845 -10.5625 9.25 C-12 7 -12 7 -12 4.9375 C-9.54073249 0.17266919 -4.96743621 -0.72441778 0 0 Z M-4 5 C-4.66 6.32 -5.32 7.64 -6 9 C-4.35 8.67 -2.7 8.34 -1 8 C-1 7.34 -1 6.68 -1 6 C-1.99 5.67 -2.98 5.34 -4 5 Z M-5 13 C-5 14.32 -5 15.64 -5 17 C-3.68 16.34 -2.36 15.68 -1 15 C-1 14.34 -1 13.68 -1 13 C-2.32 13 -3.64 13 -5 13 Z " fill="#D1DAE0" transform="translate(238,390)"/>
<path d="M0 0 C3.49376562 2.95029097 5.81979341 5.06277915 6.25 9.6875 C5.94684933 13.70424639 4.90611673 16.46006894 3 20 C0.41849021 22.21272268 -1.00140034 21.99997454 -4.4375 21.9375 C-8.85959493 20.77379081 -10.43869711 19.80314671 -13 16 C-13.70119833 12.52821313 -13.72902647 9.46857125 -13 6 C-9.19348269 1.0915961 -6.20686302 -0.73021918 0 0 Z M-4 5 C-4.99 5.99 -5.98 6.98 -7 8 C-5.93354885 9.29633621 -5.93354885 9.29633621 -3.4375 9.0625 C-2.633125 9.041875 -1.82875 9.02125 -1 9 C-1 8.01 -1 7.02 -1 6 C-1.99 5.67 -2.98 5.34 -4 5 Z M-7 13 C-6.34 14.32 -5.68 15.64 -5 17 C-1.38144425 16.37611108 -0.8290723 15.8290723 2 13 C-0.97 13 -3.94 13 -7 13 Z " fill="#CED9E0" transform="translate(276,390)"/>
<path d="M0 0 C1.32 0 2.64 0 4 0 C5.32 2.97 6.64 5.94 8 9 C10.6465335 6.3534665 11.59941997 3.43778736 13 0 C14.65 0.33 16.3 0.66 18 1 C12.11052494 22.21168661 12.11052494 22.21168661 7 28 C4.9375 28.8125 4.9375 28.8125 3 29 C2.34 28.67 1.68 28.34 1 28 C1.33 26.35 1.66 24.7 2 23 C2.99 23 3.98 23 5 23 C4.37768356 20.9366887 3.75203215 18.8743831 3.125 16.8125 C2.60292969 15.08966797 2.60292969 15.08966797 2.0703125 13.33203125 C1.07401757 10.06431607 1.07401757 10.06431607 -0.15625 7.25 C-1.20113774 4.46363269 -0.80530254 2.8185589 0 0 Z " fill="#BECBD9" transform="translate(368,390)"/>
<path d="M0 0 C1.80859375 0.61328125 1.80859375 0.61328125 3.87109375 2.42578125 C4.97051993 4.991109 4.81376311 6.05466834 3.80859375 8.61328125 C3.14859375 8.61328125 2.48859375 8.61328125 1.80859375 8.61328125 C1.80859375 9.27328125 1.80859375 9.93328125 1.80859375 10.61328125 C2.79859375 10.94328125 3.78859375 11.27328125 4.80859375 11.61328125 C5.16547107 16.9664411 5.16547107 16.9664411 3.80859375 19.42578125 C0.66738287 21.29087521 -2.56659913 21.64245475 -6.19140625 21.61328125 C-8.69140625 20.67578125 -8.69140625 20.67578125 -10.19140625 19.61328125 C-10.19140625 18.95328125 -10.19140625 18.29328125 -10.19140625 17.61328125 C-10.85140625 17.61328125 -11.51140625 17.61328125 -12.19140625 17.61328125 C-12.19140625 16.29328125 -12.19140625 14.97328125 -12.19140625 13.61328125 C-9.81640625 13.48828125 -9.81640625 13.48828125 -7.19140625 13.61328125 C-6.53140625 14.27328125 -5.87140625 14.93328125 -5.19140625 15.61328125 C-3.08319828 15.29476355 -3.08319828 15.29476355 -1.19140625 14.61328125 C-1.73410156 14.43152344 -2.27679688 14.24976563 -2.8359375 14.0625 C-3.55136719 13.81113281 -4.26679688 13.55976563 -5.00390625 13.30078125 C-5.71160156 13.05714844 -6.41929687 12.81351562 -7.1484375 12.5625 C-9.3766134 11.52722898 -10.65940093 10.5270797 -12.19140625 8.61328125 C-12.19140625 5.16539831 -11.39217264 3.84446679 -9.12890625 1.23828125 C-5.64731638 -0.68770464 -3.82884353 -0.71655106 0 0 Z M-5.19140625 5.61328125 C-5.19140625 6.27328125 -5.19140625 6.93328125 -5.19140625 7.61328125 C-2.71640625 8.10828125 -2.71640625 8.10828125 -0.19140625 8.61328125 C-0.52140625 7.62328125 -0.85140625 6.63328125 -1.19140625 5.61328125 C-2.51140625 5.61328125 -3.83140625 5.61328125 -5.19140625 5.61328125 Z " fill="#BCC5D2" transform="translate(257.19140625,390.38671875)"/>
<path d="M0 0 C2 0.25 2 0.25 4 1 C5.1151293 4.3453879 5.13299072 6.91758812 5.125 10.4375 C5.12886719 12.13712891 5.12886719 12.13712891 5.1328125 13.87109375 C5.02325193 16.45221183 4.75864877 18.54944405 4 21 C-6.80556783 22.58550597 -6.80556783 22.58550597 -11.1875 20.4375 C-13.31338084 17.5785568 -13.75964178 15.52525389 -14 12 C-13.67 12.66 -13.34 13.32 -13 14 C-11.02 13.67 -9.04 13.34 -7 13 C-6.67 13.99 -6.34 14.98 -6 16 C-4.68 15.67 -3.36 15.34 -2 15 C-1.93941406 14.00097656 -1.87882812 13.00195312 -1.81640625 11.97265625 C-1.73261719 10.68230469 -1.64882813 9.39195312 -1.5625 8.0625 C-1.48128906 6.77472656 -1.40007812 5.48695313 -1.31640625 4.16015625 C-1 1 -1 1 0 0 Z " fill="#CCD9E0" transform="translate(340,390)"/>
<path d="M0 0 C0.67740234 -0.020625 1.35480469 -0.04125 2.05273438 -0.0625 C5.22814081 -0.08733211 7.37416675 0.07433601 10.16796875 1.640625 C11.6875 3.25 11.6875 3.25 11.6875 5.25 C10.6975 5.25 9.7075 5.25 8.6875 5.25 C9.0175 5.91 9.3475 6.57 9.6875 7.25 C9.0275 7.91 8.3675 8.57 7.6875 9.25 C7.3575 8.26 7.0275 7.27 6.6875 6.25 C3.7175 5.92 0.7475 5.59 -2.3125 5.25 C-2.3125 6.9 -2.3125 8.55 -2.3125 10.25 C-2.6425 10.25 -2.9725 10.25 -3.3125 10.25 C-3.6425 7.94 -3.9725 5.63 -4.3125 3.25 C-6.61826694 6.89548133 -6.54949872 10.00210978 -6.5 14.25 C-6.49033203 16.0753125 -6.49033203 16.0753125 -6.48046875 17.9375 C-6.29461911 21.68318667 -6.29461911 21.68318667 -5.3125 25.25 C-3.3287233 26.53436734 -3.3287233 26.53436734 -1.3125 27.25 C-3.31204746 27.29254356 -5.31291636 27.29080783 -7.3125 27.25 C-9.05795605 25.50454395 -8.4427316 23.08875783 -8.4453125 20.71875 C-8.44660156 19.59855469 -8.44789063 18.47835938 -8.44921875 17.32421875 C-8.44535156 16.14472656 -8.44148437 14.96523438 -8.4375 13.75 C-8.44136719 12.57050781 -8.44523438 11.39101563 -8.44921875 10.17578125 C-8.44792969 9.05558594 -8.44664062 7.93539063 -8.4453125 6.78125 C-8.44418457 5.74548828 -8.44305664 4.70972656 -8.44189453 3.64257812 C-8.17181349 -1.35137316 -4.00561583 0.02997655 0 0 Z " fill="#ECF1F6" transform="translate(176.3125,383.75)"/>
<path d="M0 0 C1.67542976 0.28604898 3.34385343 0.61781233 5 1 C3.12275039 7.37732315 1.14328358 13.70695459 -1 20 C-1.66 20 -2.32 20 -3 20 C-3.66 20.99 -4.32 21.98 -5 23 C-5.66 23 -6.32 23 -7 23 C-7 20.36 -7 17.72 -7 15 C-7.66 15 -8.32 15 -9 15 C-8.67 13.68 -8.34 12.36 -8 11 C-8 11.66 -8 12.32 -8 13 C-7.01 12.67 -6.02 12.34 -5 12 C-3.78631817 9.47834886 -3.78631817 9.47834886 -2.875 6.5 C-1.06949807 1.06949807 -1.06949807 1.06949807 0 0 Z " fill="#EDF1F4" transform="translate(381,390)"/>
<path d="M0 0 C1.9375 0.6875 1.9375 0.6875 4 2 C4.75 4.625 4.75 4.625 5 7 C4.01 7.33 3.02 7.66 2 8 C2 8.66 2 9.32 2 10 C2.99 10.33 3.98 10.66 5 11 C5.35687732 16.35315985 5.35687732 16.35315985 4 18.8125 C0.85878912 20.67759396 -2.37519288 21.0291735 -6 21 C-8.5 20.0625 -8.5 20.0625 -10 19 C-10 18.34 -10 17.68 -10 17 C-10.66 17 -11.32 17 -12 17 C-12 15.68 -12 14.36 -12 13 C-9.625 12.875 -9.625 12.875 -7 13 C-6.34 13.66 -5.68 14.32 -5 15 C-2.89179203 14.6814823 -2.89179203 14.6814823 -1 14 C-1.99 13.34 -2.98 12.68 -4 12 C-2.35 12 -0.7 12 1 12 C1.144375 10.88625 1.28875 9.7725 1.4375 8.625 C2 5 2 5 3 3 C2.34 3 1.68 3 1 3 C0.67 2.01 0.34 1.02 0 0 Z " fill="#B0BAC6" transform="translate(257,391)"/>
<path d="M0 0 C0.66 0 1.32 0 2 0 C3.27861615 2.55723229 3.11336609 4.36737102 3.09765625 7.2265625 C3.09443359 8.2578125 3.09121094 9.2890625 3.08789062 10.3515625 C3.07951172 11.43179687 3.07113281 12.51203125 3.0625 13.625 C3.05798828 14.71296875 3.05347656 15.8009375 3.04882812 16.921875 C3.03701776 19.61463789 3.02054778 22.30729188 3 25 C0.61328125 25.10546875 0.61328125 25.10546875 -2 25 C-4.40311451 22.76261752 -4.96341425 21.53659096 -5.1875 18.25 C-5.125625 17.5075 -5.06375 16.765 -5 16 C-3.68 15.67 -2.36 15.34 -1 15 C-1.01160156 14.00097656 -1.02320313 13.00195312 -1.03515625 11.97265625 C-1.04869141 10.03712891 -1.04869141 10.03712891 -1.0625 8.0625 C-1.07410156 6.77472656 -1.08570313 5.48695313 -1.09765625 4.16015625 C-1 1 -1 1 0 0 Z " fill="#F8FBFD" transform="translate(161,386)"/>
<path d="M0 0 C0.99 0 1.98 0 3 0 C3.95458649 8.35263176 4.11039334 16.59784035 4 25 C2.01432292 24.96744792 0.02864583 24.93489583 -1.95703125 24.90234375 C-4.20305461 24.91736783 -4.20305461 24.91736783 -7 26 C-7.33 25.34 -7.66 24.68 -8 24 C-7.01 23.360625 -6.02 22.72125 -5 22.0625 C-2.81518341 20.2879776 -2.08098473 19.47479282 -1.6015625 16.6640625 C-1.62283544 14.41622189 -1.73742359 12.23189946 -2 10 C-1.34 10 -0.68 10 0 10 C0 6.7 0 3.4 0 0 Z " fill="#D4DEE4" transform="translate(362,385)"/>
<path d="M0 0 C1.65 0 3.3 0 5 0 C6 1 6 1 6.11352539 3.40844727 C6.10828857 4.45057373 6.10305176 5.4927002 6.09765625 6.56640625 C6.09443359 7.69111328 6.09121094 8.81582031 6.08789062 9.97460938 C6.07951172 11.15861328 6.07113281 12.34261719 6.0625 13.5625 C6.05798828 14.75037109 6.05347656 15.93824219 6.04882812 17.16210938 C6.03699675 20.10812226 6.02051287 23.05403681 6 26 C5.67 26 5.34 26 5 26 C4.67 18.08 4.34 10.16 4 2 C3.01 2.495 3.01 2.495 2 3 C1.52998967 6.27555608 1.52998967 6.27555608 1.375 10.0625 C1.30023438 11.35285156 1.22546875 12.64320313 1.1484375 13.97265625 C1.09945312 14.97167969 1.05046875 15.97070312 1 17 C0.01 17.33 -0.98 17.66 -2 18 C-2.66 18.99 -3.32 19.98 -4 21 C-6.475 17.04 -6.475 17.04 -9 13 C-9.66 14.32 -10.32 15.64 -11 17 C-11.3125 13.6875 -11.3125 13.6875 -11 10 C-8.5 8.0625 -8.5 8.0625 -6 7 C-3.525 10.465 -3.525 10.465 -1 14 C-0.67 9.38 -0.34 4.76 0 0 Z " fill="#C7D0DA" transform="translate(159,384)"/>
<path d="M0 0 C2.57285724 2.172635 4.48996919 3.97993838 6 7 C6.039992 8.99960012 6.04346799 11.00047242 6 13 C5.896875 12.360625 5.79375 11.72125 5.6875 11.0625 C5.460625 10.381875 5.23375 9.70125 5 9 C2 7.66666667 2 7.66666667 -1 9 C-1 8.01 -1 7.02 -1 6 C-2.65 6.33 -4.3 6.66 -6 7 C-5.67 8.32 -5.34 9.64 -5 11 C-8.79588866 10.45773019 -10.47211993 8.79872437 -13 6 C-6.41813261 -0.75507442 -6.41813261 -0.75507442 0 0 Z " fill="#CED5DE" transform="translate(276,390)"/>
<path d="M0 0 C5.61 0 11.22 0 17 0 C16.67 1.65 16.34 3.3 16 5 C10.555 5.495 10.555 5.495 5 6 C4.67 8.31 4.34 10.62 4 13 C3.01 12.67 2.02 12.34 1 12 C0.67 12.66 0.34 13.32 0 14 C0 9.38 0 4.76 0 0 Z " fill="#D5DEE4" transform="translate(123,384)"/>
<path d="M0 0 C0.66 0.33 1.32 0.66 2 1 C3.49094733 7.56016826 3.09054456 14.30976284 3 21 C4.65 21 6.3 21 8 21 C8.33 22.32 8.66 23.64 9 25 C5.7 24.67 2.4 24.34 -1 24 C-1.95658459 19.95938669 -2.16515076 16.14801842 -2.1875 12 C-2.20167969 10.80375 -2.21585938 9.6075 -2.23046875 8.375 C-2.00840258 5.12304792 -1.39787037 2.91729469 0 0 Z " fill="#F7FBFD" transform="translate(171,386)"/>
<path d="M0 0 C1.65 0 3.3 0 5 0 C5.84600276 2.0364495 6.6762825 4.07943487 7.5 6.125 C7.9640625 7.26195312 8.428125 8.39890625 8.90625 9.5703125 C10.36441006 14.14268582 10.51574046 17.45277861 9 22 C8.34 22.66 7.68 23.32 7 24 C5.82307643 20.75362269 4.66027726 17.5023602 3.5 14.25 C3.16613281 13.32960938 2.83226563 12.40921875 2.48828125 11.4609375 C2.17246094 10.57148438 1.85664062 9.68203125 1.53125 8.765625 C1.23798828 7.94868164 0.94472656 7.13173828 0.64257812 6.29003906 C0 4 0 4 0 0 Z " fill="#D1DAE1" transform="translate(98,384)"/>
<path d="M0 0 C8.25 0 16.5 0 25 0 C25.90340076 3.61360304 26.1648261 6.43368964 26.1875 10.125 C26.20167969 11.17945313 26.21585938 12.23390625 26.23046875 13.3203125 C26 16 26 16 24 18 C21.66162109 18.22705078 21.66162109 18.22705078 18.7734375 18.1953125 C17.2265625 18.18564453 17.2265625 18.18564453 15.6484375 18.17578125 C14.56820312 18.15902344 13.48796875 18.14226562 12.375 18.125 C11.28703125 18.11597656 10.1990625 18.10695312 9.078125 18.09765625 C6.38519848 18.07403409 3.69270745 18.04109556 1 18 C1 17.67 1 17.34 1 17 C8.26 17 15.52 17 23 17 C23 12.05 23 7.1 23 2 C21.68 2.33 20.36 2.66 19 3 C17.41101711 3.0150767 15.82079149 2.97043028 14.234375 2.87890625 C13.34492188 2.83056641 12.45546875 2.78222656 11.5390625 2.73242188 C10.61867187 2.67634766 9.69828125 2.62027344 8.75 2.5625 C7.81414062 2.51029297 6.87828125 2.45808594 5.9140625 2.40429688 C3.60901113 2.27493175 1.30442711 2.13997966 -1 2 C-0.67 1.34 -0.34 0.68 0 0 Z " fill="#BDC8D1" transform="translate(150,216)"/>
<path d="M0 0 C2.6640625 1.484375 2.6640625 1.484375 5 4 C5.61353732 6.93960183 5.4734657 9.76346714 5.3125 12.75 C5.28994141 13.54277344 5.26738281 14.33554687 5.24414062 15.15234375 C5.18540471 17.1023762 5.09572654 19.05143312 5 21 C2.69 21 0.38 21 -2 21 C-2 20.67 -2 20.34 -2 20 C-0.02 20 1.96 20 4 20 C4 15.05 4 10.1 4 5 C3.01 5.33 2.02 5.66 1 6 C0.67 6.99 0.34 7.98 0 9 C-0.99 8.67 -1.98 8.34 -3 8 C-2.34 8 -1.68 8 -1 8 C-1 7.34 -1 6.68 -1 6 C-3.86724686 6.57344937 -4.8614515 6.8614515 -7 9 C-9.125 8.625 -9.125 8.625 -11 8 C-11.33 6.68 -11.66 5.36 -12 4 C-7.88361792 0.86370889 -5.23048188 -0.89029479 0 0 Z " fill="#9DA7BB" transform="translate(238,390)"/>
<path d="M0 0 C9.88689004 -0.77917697 9.88689004 -0.77917697 14.125 2.1875 C15.96190858 4.94286287 16.71956235 6.72822744 17 10 C14.6875 10.25 14.6875 10.25 12 10 C11.54625 9.34 11.0925 8.68 10.625 8 C9.04906047 5.58807151 9.04906047 5.58807151 5.4375 5.5625 C3.7359375 5.7790625 3.7359375 5.7790625 2 6 C-0.12508244 9.18762365 -0.5020163 11.26512223 -1 15 C-1.33 15 -1.66 15 -2 15 C-2 12.36 -2 9.72 -2 7 C-1.34 7 -0.68 7 0 7 C0.2165625 6.0409375 0.2165625 6.0409375 0.4375 5.0625 C1 3 1 3 2 2 C1.34 1.34 0.68 0.68 0 0 Z " fill="#C5CED6" transform="translate(208,384)"/>
<path d="M0 0 C0.99 0 1.98 0 3 0 C3 4.95 3 9.9 3 15 C-1.455 15.495 -1.455 15.495 -6 16 C-6 15.34 -6 14.68 -6 14 C-5.34 14 -4.68 14 -4 14 C-4 13.34 -4 12.68 -4 12 C-3.34 12 -2.68 12 -2 12 C-2 10.35 -2 8.7 -2 7 C-3.65 6.67 -5.3 6.34 -7 6 C-7 5.34 -7 4.68 -7 4 C-4 3 -4 3 -1 4 C-0.67 2.68 -0.34 1.36 0 0 Z " fill="#F5F9FB" transform="translate(239,395)"/>
<path d="M0 0 C3.44630058 1.14876686 3.91620679 2.19140915 6 5 C6.66 5 7.32 5 8 5 C8 3.68 8 2.36 8 1 C9.65 1 11.3 1 13 1 C13 2.32 13 3.64 13 5 C13.99 5.33 14.98 5.66 16 6 C14.68 6 13.36 6 12 6 C12 4.68 12 3.36 12 2 C11.01 2 10.02 2 9 2 C9.08378906 2.58265625 9.16757812 3.1653125 9.25390625 3.765625 C10.10901762 10.64981275 9.7685714 17.1183299 9 24 C8.67 24 8.34 24 8 24 C8 19.71 8 15.42 8 11 C7.01 10.67 6.02 10.34 5 10 C5 9.34 5 8.68 5 8 C3.02 8 1.04 8 -1 8 C-1.93065133 5.39417629 -2.14917407 4.35801776 -1.0625 1.75 C-0.711875 1.1725 -0.36125 0.595 0 0 Z " fill="#C2CFDA" transform="translate(308,385)"/>
<path d="M0 0 C0.99 0.33 1.98 0.66 3 1 C2.01 2.485 2.01 2.485 1 4 C1.20590254 7.29444058 1.42591972 9.31110367 3.5625 11.875 C4.036875 12.24625 4.51125 12.6175 5 13 C4.67 13.66 4.34 14.32 4 15 C4.928125 14.79375 5.85625 14.5875 6.8125 14.375 C10 14 10 14 13 16 C11.27277272 16.22384382 9.54303993 16.42839969 7.8125 16.625 C6.36810547 16.79902344 6.36810547 16.79902344 4.89453125 16.9765625 C1.6921814 17.00249246 -0.1870231 16.50608435 -3 15 C-5 12 -5 12 -5 9 C-4.34 9 -3.68 9 -3 9 C-2.87625 8.443125 -2.7525 7.88625 -2.625 7.3125 C-1.94023145 4.77885636 -1.00866237 2.42078968 0 0 Z " fill="#BECCD6" transform="translate(352,395)"/>
<path d="M0 0 C2.66666667 1.33333333 5.33333333 2.66666667 8 4 C8 3.34 8 2.68 8 2 C10.64 1.34 13.28 0.68 16 0 C16 0.66 16 1.32 16 2 C16.66 2 17.32 2 18 2 C17.67 3.65 17.34 5.3 17 7 C14.54101345 7.08076963 12.08466258 7.14037143 9.625 7.1875 C8.57699219 7.22520508 8.57699219 7.22520508 7.5078125 7.26367188 C5.4765625 7.29296875 5.4765625 7.29296875 2 7 C0 4 0 4 0 0 Z " fill="#ECF3FA" transform="translate(263,397)"/>
<path d="M0 0 C0.34057617 2.70556641 0.34057617 2.70556641 0.29296875 6.1015625 C0.28330078 7.31328125 0.27363281 8.525 0.26367188 9.7734375 C0.23853516 11.04445313 0.21339844 12.31546875 0.1875 13.625 C0.16719727 15.543125 0.16719727 15.543125 0.14648438 17.5 C0.11103196 20.66708282 0.06161441 23.83333541 0 27 C-2.27991712 25.22497802 -2.95047123 24.3699213 -3.34057617 21.45629883 C-3.32486572 20.46654053 -3.30915527 19.47678223 -3.29296875 18.45703125 C-3.28330078 17.38388672 -3.27363281 16.31074219 -3.26367188 15.20507812 C-3.23853516 14.08552734 -3.21339844 12.96597656 -3.1875 11.8125 C-3.16719727 10.11577148 -3.16719727 10.11577148 -3.14648438 8.38476562 C-3.11110305 5.58964118 -3.05729579 2.79476111 -3 0 C-9.93 0 -16.86 0 -24 0 C-24 -0.33 -24 -0.66 -24 -1 C-20.56341292 -1.22580354 -17.12582782 -1.42762697 -13.6875 -1.625 C-12.71103516 -1.68945312 -11.73457031 -1.75390625 -10.72851562 -1.8203125 C-9.79072266 -1.871875 -8.85292969 -1.9234375 -7.88671875 -1.9765625 C-7.02264404 -2.02893066 -6.15856934 -2.08129883 -5.26831055 -2.13525391 C-3 -2 -3 -2 0 0 Z " fill="#C7D1DC" transform="translate(215,294)"/>
<path d="M0 0 C0.33 0 0.66 0 1 0 C1.02909763 3.24998112 1.04683161 6.49992857 1.0625 9.75 C1.07087891 10.67039063 1.07925781 11.59078125 1.08789062 12.5390625 C1.09111328 13.42851562 1.09433594 14.31796875 1.09765625 15.234375 C1.10289307 16.05131836 1.10812988 16.86826172 1.11352539 17.70996094 C1.00244154 19.95074909 0.58228221 21.84134923 0 24 C-0.2198223 26.24707241 -0.40483987 28.49771238 -0.5625 30.75 C-0.64628906 31.92046875 -0.73007813 33.0909375 -0.81640625 34.296875 C-0.87699219 35.18890625 -0.93757812 36.0809375 -1 37 C-1.33 37 -1.66 37 -2 37 C-2.04967599 32.69500266 -2.08584945 28.39016007 -2.10986328 24.08496094 C-2.11988105 22.62236624 -2.13349912 21.15979137 -2.15087891 19.69726562 C-2.17531439 17.58718961 -2.18652537 15.47737988 -2.1953125 13.3671875 C-2.20578613 12.09987793 -2.21625977 10.83256836 -2.22705078 9.52685547 C-2.00065167 6.01012267 -1.27223601 3.27083513 0 0 Z " fill="#8D9194" transform="translate(218,209)"/>
<path d="M0 0 C0.99 0.33 1.98 0.66 3 1 C3 1.99 3 2.98 3 4 C7.455 4.99 7.455 4.99 12 6 C11.67 6.99 11.34 7.98 11 9 C2.9259724 10.58720201 2.9259724 10.58720201 -0.5625 8.375 C-2.21104964 5.65130928 -2.34761825 4.12856427 -2 1 C-1.34 0.67 -0.68 0.34 0 0 Z " fill="#CBD9E4" transform="translate(294,401)"/>
<path d="M0 0 C1.11375 0.1546875 1.11375 0.1546875 2.25 0.3125 C1.26 2.2925 0.27 4.2725 -0.75 6.3125 C-1.41 6.3125 -2.07 6.3125 -2.75 6.3125 C-2.688125 7.405625 -2.62625 8.49875 -2.5625 9.625 C-2.75 13.3125 -2.75 13.3125 -4.1875 15.25 C-5.75 16.3125 -5.75 16.3125 -6.75 16.3125 C-7.36971831 6.48307903 -7.36971831 6.48307903 -5.0625 2.125 C-2.75 0.3125 -2.75 0.3125 0 0 Z " fill="#E0E6EC" transform="translate(208.75,384.6875)"/>
<path d="M0 0 C2.41734542 -0.08117951 4.83194949 -0.14056926 7.25 -0.1875 C7.93191406 -0.21263672 8.61382812 -0.23777344 9.31640625 -0.26367188 C12.51262602 -0.31021876 14.66692213 -0.18591611 17.484375 1.38671875 C19 3 19 3 19 5 C18.01 5 17.02 5 16 5 C16.33 5.66 16.66 6.32 17 7 C16.34 7.66 15.68 8.32 15 9 C14.67 8.01 14.34 7.02 14 6 C11.36 5.67 8.72 5.34 6 5 C6.99 4.67 7.98 4.34 9 4 C9 3.01 9 2.02 9 1 C6.03 1 3.06 1 0 1 C0 0.67 0 0.34 0 0 Z " fill="#BEC7D2" transform="translate(169,384)"/>
<path d="M0 0 C0.495 1.485 0.495 1.485 1 3 C-1.43870996 5.43870996 -2.07376074 5.25555834 -5.41796875 5.2746582 C-6.33231689 5.28419022 -7.24666504 5.29372223 -8.1887207 5.30354309 C-9.67311646 5.30217598 -9.67311646 5.30217598 -11.1875 5.30078125 C-12.20094482 5.30506638 -13.21438965 5.3093515 -14.25854492 5.31376648 C-16.40380098 5.31951609 -18.54907654 5.32000542 -20.69433594 5.31567383 C-23.98666423 5.3125128 -27.27809535 5.33596929 -30.5703125 5.36132812 C-32.65104053 5.36360084 -34.73177098 5.36430474 -36.8125 5.36328125 C-37.80209717 5.372491 -38.79169434 5.38170074 -39.8112793 5.39118958 C-40.72562744 5.38496078 -41.63997559 5.37873199 -42.58203125 5.37231445 C-43.79209839 5.37325859 -43.79209839 5.37325859 -45.02661133 5.3742218 C-46.00343872 5.18898201 -46.00343872 5.18898201 -47 5 C-47.66 4.01 -48.32 3.02 -49 2 C-48.42790298 2.16233124 -47.85580597 2.32466248 -47.26637268 2.49191284 C-45.00602728 2.99864877 -43.0500274 3.12686855 -40.73803711 3.12939453 C-39.49170753 3.13412277 -39.49170753 3.13412277 -38.22019958 3.13894653 C-36.88723595 3.13591019 -36.88723595 3.13591019 -35.52734375 3.1328125 C-34.60788467 3.13376923 -33.6884256 3.13472595 -32.74110413 3.13571167 C-30.80030244 3.13639131 -28.85949847 3.13455211 -26.91870117 3.13037109 C-23.94509798 3.12501369 -20.97164541 3.13032656 -17.99804688 3.13671875 C-16.11197883 3.13605805 -14.22591088 3.13477706 -12.33984375 3.1328125 C-11.00384377 3.13584885 -11.00384377 3.13584885 -9.64085388 3.13894653 C-8.81311966 3.13579437 -7.98538544 3.13264221 -7.13256836 3.12939453 C-6.40516953 3.12859894 -5.67777069 3.12780334 -4.92832947 3.12698364 C-2.7796488 3.06722016 -2.7796488 3.06722016 0 2 C0 1.34 0 0.68 0 0 Z " fill="#AFBDD0" transform="translate(266,246)"/>
<path d="M0 0 C0.66 0 1.32 0 2 0 C2.33 1.65 2.66 3.3 3 5 C2.01 5.33 1.02 5.66 0 6 C0 12.6 0 19.2 0 26 C-0.66 26.33 -1.32 26.66 -2 27 C-2.05811773 23.25006521 -2.09363593 19.50024648 -2.125 15.75 C-2.14175781 14.68652344 -2.15851563 13.62304688 -2.17578125 12.52734375 C-2.18222656 11.50253906 -2.18867188 10.47773438 -2.1953125 9.421875 C-2.20578613 8.47924805 -2.21625977 7.53662109 -2.22705078 6.56542969 C-1.99119213 3.90048059 -1.35661659 2.28136908 0 0 Z " fill="#B5C2D0" transform="translate(251,130)"/>
<path d="M0 0 C0.66 0.33 1.32 0.66 2 1 C2.05786668 4.79160297 2.09355054 8.58309311 2.125 12.375 C2.14175781 13.45523437 2.15851563 14.53546875 2.17578125 15.6484375 C2.18222656 16.6796875 2.18867188 17.7109375 2.1953125 18.7734375 C2.20578613 19.72653809 2.21625977 20.67963867 2.22705078 21.66162109 C2 24 2 24 0 26 C-1 23 -1 23 -0.53125 21.24609375 C0.46437446 17.03665209 -0.4420493 12.67822617 -0.84375 8.41015625 C-0.98424015 5.34395866 -0.76207884 2.95305552 0 0 Z " fill="#D9E3EF" transform="translate(233,293)"/>
<path d="M0 0 C4.94084137 4.78145939 4.94084137 4.78145939 5.11352539 8.33837891 C5.10567017 9.76802979 5.10567017 9.76802979 5.09765625 11.2265625 C5.09282227 12.7734375 5.09282227 12.7734375 5.08789062 14.3515625 C5.07951172 15.43179688 5.07113281 16.51203125 5.0625 17.625 C5.05798828 18.71296875 5.05347656 19.8009375 5.04882812 20.921875 C5.03701776 23.61463789 5.02054778 26.30729188 5 29 C2.47871644 26.47871644 2.70646931 25.48760987 2.5859375 21.9921875 C2.54726563 21.00605469 2.50859375 20.01992187 2.46875 19.00390625 C2.4378125 17.97136719 2.406875 16.93882812 2.375 15.875 C2.31699219 14.31458984 2.31699219 14.31458984 2.2578125 12.72265625 C2.16335234 10.14861689 2.07778786 7.57458845 2 5 C1.34 4.67 0.68 4.34 0 4 C0 2.68 0 1.36 0 0 Z " fill="#D9E2EB" transform="translate(267,128)"/>
<path d="M0 0 C1.65 0 3.3 0 5 0 C5 3.96 5 7.92 5 12 C4.67 12 4.34 12 4 12 C4 8.37 4 4.74 4 1 C1.70176341 3.29823659 1.70309616 3.94880882 1.4375 7.0625 C1 11 1 11 0 12 C-0.07148199 13.35243917 -0.08399454 14.70834367 -0.0625 16.0625 C-0.041875 17.361875 -0.02125 18.66125 0 20 C-0.33 20 -0.66 20 -1 20 C-1.33 17.36 -1.66 14.72 -2 12 C-2.99 11.67 -3.98 11.34 -5 11 C-4.67 10.34 -4.34 9.68 -4 9 C-3.01 9 -2.02 9 -1 9 C-1.020625 7.700625 -1.04125 6.40125 -1.0625 5.0625 C-1.08399454 3.70834367 -1.07148199 2.35243917 -1 1 C-0.67 0.67 -0.34 0.34 0 0 Z " fill="#CCD3D9" transform="translate(361,384)"/>
<path d="M0 0 C1.65 0 3.3 0 5 0 C6 1 6 1 6.11352539 3.40844727 C6.10567017 4.97163696 6.10567017 4.97163696 6.09765625 6.56640625 C6.09282227 8.2534668 6.09282227 8.2534668 6.08789062 9.97460938 C6.07951172 11.15861328 6.07113281 12.34261719 6.0625 13.5625 C6.05798828 14.75037109 6.05347656 15.93824219 6.04882812 17.16210938 C6.03699675 20.10812226 6.02051287 23.05403681 6 26 C5.67 26 5.34 26 5 26 C4.67 18.08 4.34 10.16 4 2 C3.01 2.495 3.01 2.495 2 3 C1.53045739 6.04581269 1.53045739 6.04581269 1.375 9.5625 C1.30023438 10.76003906 1.22546875 11.95757812 1.1484375 13.19140625 C1.09945312 14.11824219 1.05046875 15.04507812 1 16 C0.67 16 0.34 16 0 16 C0 10.72 0 5.44 0 0 Z " fill="#8496A8" transform="translate(159,384)"/>
<path d="M0 0 C0.99 0 1.98 0 3 0 C3.10477512 5.78591511 2.99250545 11.29309366 2 17 C1.01 17.33 0.02 17.66 -1 18 C-1.33 15.36 -1.66 12.72 -2 10 C-1.34 10 -0.68 10 0 10 C0 6.7 0 3.4 0 0 Z " fill="#F5F9FB" transform="translate(362,385)"/>
<path d="M0 0 C2 0.25 2 0.25 4 1 C5.14077657 4.42232972 5.09815117 7.08673217 5.0625 10.6875 C5.05347656 11.86699219 5.04445313 13.04648437 5.03515625 14.26171875 C5.02355469 15.16535156 5.01195312 16.06898438 5 17 C4.67 17 4.34 17 4 17 C3.93941406 16.37351562 3.87882812 15.74703125 3.81640625 15.1015625 C3.73261719 14.28429687 3.64882813 13.46703125 3.5625 12.625 C3.48128906 11.81289063 3.40007812 11.00078125 3.31640625 10.1640625 C3.10909886 7.95727195 3.10909886 7.95727195 2 6 C1.01 9.465 1.01 9.465 0 13 C-0.33 13 -0.66 13 -1 13 C-1.02686553 11.02090602 -1.04633375 9.04171029 -1.0625 7.0625 C-1.07410156 5.96035156 -1.08570313 4.85820312 -1.09765625 3.72265625 C-1 1 -1 1 0 0 Z " fill="#96B4CB" transform="translate(340,390)"/>
<path d="M0 0 C0.33 0 0.66 0 1 0 C1.60520095 7.26241135 1.60520095 7.26241135 -1 10.4375 C-4.81418293 12.42405361 -7.72297752 12.71003237 -12 13 C-10 11 -10 11 -7 10 C-6.26676204 7.98491642 -6.26676204 7.98491642 -6 6 C-4.35 5.67 -2.7 5.34 -1 5 C-0.67 3.35 -0.34 1.7 0 0 Z " fill="#C0CAD4" transform="translate(312,399)"/>
<path d="M0 0 C2.20914 3.31371 2.22481553 4.3446021 2.125 8.1875 C2.10695313 9.08855469 2.08890625 9.98960937 2.0703125 10.91796875 C2.03550781 11.94857422 2.03550781 11.94857422 2 13 C0.68 12.67 -0.64 12.34 -2 12 C-3.60170888 7.9957278 -2.34040384 4.94674464 -1 1 C-0.67 0.67 -0.34 0.34 0 0 Z " fill="#F5FBFD" transform="translate(342,395)"/>
<path d="M0 0 C0.33 0.66 0.66 1.32 1 2 C1.598125 1.79375 2.19625 1.5875 2.8125 1.375 C5 1 5 1 8 3 C7.34 3 6.68 3 6 3 C6.226875 3.928125 6.45375 4.85625 6.6875 5.8125 C7 9 7 9 5.6875 10.875 C4 12 4 12 2 12 C2 9.36 2 6.72 2 4 C1.34 4 0.68 4 0 4 C0 2.68 0 1.36 0 0 Z " fill="#F7FCFB" transform="translate(372,401)"/>
<path d="M0 0 C0.99 0.33 1.98 0.66 3 1 C3 1.66 3 2.32 3 3 C3.66 3 4.32 3 5 3 C4.88637738 4.4800841 4.75877092 5.95910074 4.625 7.4375 C4.55539062 8.26121094 4.48578125 9.08492188 4.4140625 9.93359375 C4.27742188 10.61550781 4.14078125 11.29742187 4 12 C1.13822943 13.43088528 -0.93375773 12.59991697 -4 12 C-3.67 10.68 -3.34 9.36 -3 8 C-1.35 8 0.3 8 2 8 C1.42547254 4.06924356 1.42547254 4.06924356 -1 1 C-0.67 0.67 -0.34 0.34 0 0 Z " fill="#F3FCFD" transform="translate(255,391)"/>
<path d="M0 0 C2.3151437 3.47271555 2.25453763 4.92739797 2 9 C1 12 1 12 -1 14 C-2.32 10.04 -3.64 6.08 -5 2 C-3.68 2.33 -2.36 2.66 -1 3 C-0.67 2.01 -0.34 1.02 0 0 Z " fill="#C0C8D6" transform="translate(106,394)"/>
<path d="M0 0 C0.33 0 0.66 0 1 0 C1.33 1.98 1.66 3.96 2 6 C2.66 6 3.32 6 4 6 C4.33 5.34 4.66 4.68 5 4 C6.76462683 7.08809695 7 8.23312136 7 12 C5.68 12.33 4.36 12.66 3 13 C-0.36055646 8.51925805 -0.27429625 5.39449293 0 0 Z " fill="#CDDEE6" transform="translate(201,394)"/>
<path d="M0 0 C3.63 0 7.26 0 11 0 C11 0.99 11 1.98 11 3 C11.66 3.33 12.32 3.66 13 4 C7.99924211 5.47081114 4.56282488 4.28141244 0 2 C0 1.34 0 0.68 0 0 Z " fill="#E6EEF0" transform="translate(297,384)"/>
<path d="M0 0 C3 1 3 1 4 3 C4.25 6 4.25 6 4 9 C3.01 9.66 2.02 10.32 1 11 C-0.625 10 -0.625 10 -2 8 C-1.65009645 5.1841095 -0.84980278 2.7283142 0 0 Z " fill="#EAF5F8" transform="translate(328,394)"/>
<path d="M0 0 C0.33 0 0.66 0 1 0 C1 2.97 1 5.94 1 9 C-1.3125 9.25 -1.3125 9.25 -4 9 C-5.97610386 6.95575462 -7 5.8823175 -7 3 C-4.525 3.495 -4.525 3.495 -2 4 C-1.34 2.68 -0.68 1.36 0 0 Z " fill="#DBE3E8" transform="translate(163,402)"/>
<path d="M0 0 C0.33 2.31 0.66 4.62 1 7 C-0.32 7.33 -1.64 7.66 -3 8 C-6 3.25 -6 3.25 -6 1 C-4 0 -4 0 0 0 Z " fill="#EAF0F3" transform="translate(311,397)"/>
<path d="M0 0 C0.33 0 0.66 0 1 0 C1.29557392 5.02475668 1.0282379 7.92352591 -2 12 C-2.66 12.66 -3.32 13.32 -4 14 C-6.625 13.625 -6.625 13.625 -9 13 C-7 10 -7 10 -5.0625 9.3125 C-1.72872989 7.19100993 -1.1228757 3.65785265 0 0 Z " fill="#C1CEE4" transform="translate(341,241)"/>
<path d="M0 0 C0.66 0.33 1.32 0.66 2 1 C1.10633592 4.65589852 0.55523341 6.55866062 -2.4375 8.9375 C-5 10 -5 10 -8 9 C-8 7.68 -8 6.36 -8 5 C-6.865625 4.731875 -5.73125 4.46375 -4.5625 4.1875 C-3.386875 3.795625 -2.21125 3.40375 -1 3 C-0.67 2.01 -0.34 1.02 0 0 Z " fill="#CFDBE8" transform="translate(377,409)"/>
<path d="M0 0 C1.9375 0.6875 1.9375 0.6875 4 2 C4.75 4.625 4.75 4.625 5 7 C4.01 7.33 3.02 7.66 2 8 C2 8.66 2 9.32 2 10 C2.66 10 3.32 10 4 10 C3.46930939 13.82097239 2.50298434 16.06171403 0 19 C-0.66 18.34 -1.32 17.68 -2 17 C-1.34 16.67 -0.68 16.34 0 16 C0.3925004 14.00712388 0.3925004 14.00712388 0.5 11.6875 C0.72437865 8.29377299 1.31526681 5.96866291 3 3 C2.34 3 1.68 3 1 3 C0.67 2.01 0.34 1.02 0 0 Z " fill="#ECF5F6" transform="translate(257,391)"/>
<path d="M0 0 C1.65 0 3.3 0 5 0 C5 1.32 5 2.64 5 4 C4.34 4 3.68 4 3 4 C3 5.32 3 6.64 3 8 C2.34 8 1.68 8 1 8 C0.67 8.66 0.34 9.32 0 10 C-1.36952673 7.26094655 -1.12621361 5.02912668 -1 2 C-0.67 1.34 -0.34 0.68 0 0 Z " fill="#E1ECED" transform="translate(115,385)"/>
<path d="M0 0 C0 1.98 0 3.96 0 6 C-0.33 5.34 -0.66 4.68 -1 4 C-1.99 4.33 -2.98 4.66 -4 5 C-4.33 6.65 -4.66 8.3 -5 10 C-5.33 10 -5.66 10 -6 10 C-6 7.36 -6 4.72 -6 2 C-6.66 2 -7.32 2 -8 2 C-6.04981346 -1.90037307 -3.74298737 -0.88649701 0 0 Z " fill="#BBCDDC" transform="translate(332,391)"/>
<path d="M0 0 C1.98 0 3.96 0 6 0 C6.33 1.32 6.66 2.64 7 4 C4.69 4 2.38 4 0 4 C-0.33 4.66 -0.66 5.32 -1 6 C-1.99 6 -2.98 6 -4 6 C-3.67 5.01 -3.34 4.02 -3 3 C-2.34 3 -1.68 3 -1 3 C-0.67 2.01 -0.34 1.02 0 0 Z " fill="#D1DFE2" transform="translate(232,390)"/>
<path d="M0 0 C0.33 0 0.66 0 1 0 C1.04898437 0.71027344 1.09796875 1.42054688 1.1484375 2.15234375 C1.22320312 3.07144531 1.29796875 3.99054688 1.375 4.9375 C1.44460938 5.85402344 1.51421875 6.77054687 1.5859375 7.71484375 C1.72257812 8.46894531 1.85921875 9.22304688 2 10 C2.66 10.33 3.32 10.66 4 11 C4 12.32 4 13.64 4 15 C1.39417629 15.93065133 0.35801776 16.14917407 -2.25 15.0625 C-2.8275 14.711875 -3.405 14.36125 -4 14 C-3.01 13.34 -2.02 12.68 -1 12 C-0.41518879 9.11404054 -0.41518879 9.11404054 -0.3125 5.875 C-0.24675781 4.77929688 -0.18101562 3.68359375 -0.11328125 2.5546875 C-0.07589844 1.71164062 -0.03851563 0.86859375 0 0 Z " fill="#A8B9C1" transform="translate(321,396)"/>
<path d="M0 0 C3.60296594 -0.41176754 4.78402067 -0.1535853 7.8125 2 C8.534375 2.66 9.25625 3.32 10 4 C9.67 4.66 9.34 5.32 9 6 C4.545 5.01 4.545 5.01 0 4 C0 2.68 0 1.36 0 0 Z " fill="#C2D5D8" transform="translate(245,404)"/>
<path d="M0 0 C12.66970387 -0.18451025 12.66970387 -0.18451025 18 1 C18 1.66 18 2.32 18 3 C11.73 2.67 5.46 2.34 -1 2 C-0.67 1.34 -0.34 0.68 0 0 Z " fill="#C9D2D9" transform="translate(150,216)"/>
<path d="M0 0 C1.46726798 3.81489674 0.43336419 6.29011622 -1 10 C-2.32 9.01 -3.64 8.02 -5 7 C-4.75 4.625 -4.75 4.625 -4 2 C-1.9375 0.6875 -1.9375 0.6875 0 0 Z " fill="#DFE2F4" transform="translate(250,392)"/>
<path d="M0 0 C3.96 0 7.92 0 12 0 C12.33 0.99 12.66 1.98 13 3 C11.20906809 3.08086147 9.41710372 3.13912702 7.625 3.1875 C6.12839844 3.23970703 6.12839844 3.23970703 4.6015625 3.29296875 C3.74304688 3.19628906 2.88453125 3.09960938 2 3 C1.34 2.01 0.68 1.02 0 0 Z " fill="#F5FDFE" transform="translate(127,385)"/>
<path d="M0 0 C1.32 0.33 2.64 0.66 4 1 C3.67 2.32 3.34 3.64 3 5 C3.66 5 4.32 5 5 5 C5 7.31 5 9.62 5 12 C4.34 12 3.68 12 3 12 C2.67 12.66 2.34 13.32 2 14 C1.93941406 13.15695312 1.87882813 12.31390625 1.81640625 11.4453125 C1.73261719 10.34960938 1.64882812 9.25390625 1.5625 8.125 C1.48128906 7.03445313 1.40007812 5.94390625 1.31640625 4.8203125 C1.16998297 2.05271029 1.16998297 2.05271029 0 0 Z " fill="#F9FCFD" transform="translate(184,388)"/>
<path d="M0 0 C2.04795423 1.9626228 2.94976638 3.4277307 3.19921875 6.26953125 C3.18858877 8.51954383 3.12958525 10.75385562 3 13 C2.34 13 1.68 13 1 13 C0.63631108 11.39796533 0.28438048 9.79325797 -0.0625 8.1875 C-0.25972656 7.29417969 -0.45695313 6.40085938 -0.66015625 5.48046875 C-1 3 -1 3 0 0 Z " fill="#C8D3DE" transform="translate(232,130)"/>
<path d="M0 0 C0.33 0 0.66 0 1 0 C1.06058594 0.96421875 1.12117187 1.9284375 1.18359375 2.921875 C1.26738281 4.18515625 1.35117188 5.4484375 1.4375 6.75 C1.51871094 8.00296875 1.59992188 9.2559375 1.68359375 10.546875 C2.00940764 14.35303413 2.00940764 14.35303413 3 18 C4.9837767 19.28436734 4.9837767 19.28436734 7 20 C5.00045254 20.04254356 2.99958364 20.04080783 1 20 C0 19 0 19 -0.11352539 17.14233398 C-0.10828857 16.35157471 -0.10305176 15.56081543 -0.09765625 14.74609375 C-0.09443359 13.89208984 -0.09121094 13.03808594 -0.08789062 12.15820312 C-0.07951172 11.26037109 -0.07113281 10.36253906 -0.0625 9.4375 C-0.05798828 8.53580078 -0.05347656 7.63410156 -0.04882812 6.70507812 C-0.03700225 4.46998686 -0.0205222 2.23502563 0 0 Z " fill="#96A8BE" transform="translate(168,391)"/>
<path d="M0 0 C4.97631579 4.81578947 4.97631579 4.81578947 5.0625 9.125 C5.041875 10.07375 5.02125 11.0225 5 12 C4.896875 11.360625 4.79375 10.72125 4.6875 10.0625 C4.460625 9.381875 4.23375 8.70125 4 8 C1 6.66666667 1 6.66666667 -2 8 C-1.67 7.05125 -1.34 6.1025 -1 5.125 C0.10159191 2.22937548 0.10159191 2.22937548 0 0 Z " fill="#A2ABB9" transform="translate(277,391)"/>
<path d="M0 0 C0.33 0 0.66 0 1 0 C1.33 5.28 1.66 10.56 2 16 C2.99 15.67 3.98 15.34 5 15 C5 16.32 5 17.64 5 19 C3.0625 18.1875 3.0625 18.1875 1 17 C-0.18681726 13.43954823 -0.09689832 10.56191663 -0.0625 6.8125 C-0.05347656 5.54019531 -0.04445312 4.26789063 -0.03515625 2.95703125 C-0.02355469 1.98121094 -0.01195312 1.00539063 0 0 Z " fill="#D0DEE7" transform="translate(250,304)"/>
<path d="M0 0 C6.4 -0.36923077 6.4 -0.36923077 9.4375 1.5 C9.953125 1.995 10.46875 2.49 11 3 C11 2.34 11 1.68 11 1 C11.99 1.33 12.98 1.66 14 2 C13.34 2 12.68 2 12 2 C12 2.66 12 3.32 12 4 C9.125 4.625 9.125 4.625 6 5 C5.34 4.34 4.68 3.68 4 3 C4.33 2.34 4.66 1.68 5 1 C3.35 1 1.7 1 0 1 C0 0.67 0 0.34 0 0 Z " fill="#C1D2DB" transform="translate(174,406)"/>
<path d="M0 0 C-0.75 7.625 -0.75 7.625 -3 11 C-3.66 8.03 -4.32 5.06 -5 2 C-2 0 -2 0 0 0 Z " fill="#D7DFE7" transform="translate(382,399)"/>
<path d="M0 0 C1.98 0 3.96 0 6 0 C6.66 1.65 7.32 3.3 8 5 C7.01 5.66 6.02 6.32 5 7 C3.68 5.68 2.36 4.36 1 3 C1.99 2.67 2.98 2.34 4 2 C2.68 1.34 1.36 0.68 0 0 Z " fill="#C5D4D8" transform="translate(270,390)"/>
<path d="M0 0 C0.66 0 1.32 0 2 0 C1.58882123 5.96209223 0.74729595 9.31588007 -3 14 C-3.33 14 -3.66 14 -4 14 C-4 12.35 -4 10.7 -4 9 C-3.34 9 -2.68 9 -2 9 C-1.34 6.03 -0.68 3.06 0 0 Z " fill="#C4CFD8" transform="translate(308,273)"/>
<path d="M0 0 C0.87822019 2.45901654 1.19223228 3.56061193 0.125 6 C-0.24625 6.66 -0.6175 7.32 -1 8 C-1.36784131 9.3242287 -1.71202981 10.65613912 -2 12 C-2.66 12 -3.32 12 -4 12 C-3.91253716 10.56138706 -3.80434652 9.12402492 -3.6875 7.6875 C-3.62949219 6.88699219 -3.57148438 6.08648437 -3.51171875 5.26171875 C-2.91793306 2.63727666 -2.04219706 1.69179328 0 0 Z " fill="#C9D5E4" transform="translate(146,198)"/>
<path d="M0 0 C0.33 0 0.66 0 1 0 C1.87890625 6.15234375 1.87890625 6.15234375 2 8 C1 9 1 9 -1.5625 9.0625 C-2.366875 9.041875 -3.17125 9.02125 -4 9 C-4 7.35 -4 5.7 -4 4 C-3.01 4 -2.02 4 -1 4 C-0.67 2.68 -0.34 1.36 0 0 Z " fill="#B9D0DC" transform="translate(147,402)"/>
<path d="M0 0 C0.78375 0.04125 1.5675 0.0825 2.375 0.125 C2.045 1.775 1.715 3.425 1.375 5.125 C0.385 5.455 -0.605 5.785 -1.625 6.125 C-2.615 4.805 -3.605 3.485 -4.625 2.125 C-2.625 0.125 -2.625 0.125 0 0 Z " fill="#C1D5DB" transform="translate(278.625,403.875)"/>
<path d="M0 0 C0.33 0 0.66 0 1 0 C1.31563182 5.26053037 0.66590937 8.44573816 -2 13 C-2.66 13 -3.32 13 -4 13 C-3.40895235 8.15340923 -2.02055843 4.39251833 0 0 Z " fill="#C1CCD7" transform="translate(341,203)"/>
<path d="M0 0 C3 1 3 1 5 4 C5.125 7.1875 5.125 7.1875 5 10 C4.01 10 3.02 10 2 10 C0.56911472 7.13822943 1.40008303 5.06624227 2 2 C1.34 2 0.68 2 0 2 C0 1.34 0 0.68 0 0 Z " fill="#DCE5EA" transform="translate(336,197)"/>
<path d="M0 0 C0.99 0.66 1.98 1.32 3 2 C3.99 1.67 4.98 1.34 6 1 C6 1.66 6 2.32 6 3 C5.34 3 4.68 3 4 3 C4 3.66 4 4.32 4 5 C3.34 5 2.68 5 2 5 C2 5.66 2 6.32 2 7 C2.66 7.33 3.32 7.66 4 8 C1.03 7.505 1.03 7.505 -2 7 C-1.34 6.67 -0.68 6.34 0 6 C0 4.02 0 2.04 0 0 Z " fill="#A9C5CF" transform="translate(231,404)"/>
<path d="M0 0 C0 0.66 0 1.32 0 2 C-1.32 2 -2.64 2 -4 2 C-4 3.65 -4 5.3 -4 7 C-5.32 7 -6.64 7 -8 7 C-8.33 6.01 -8.66 5.02 -9 4 C-3.375 0 -3.375 0 0 0 Z " fill="#E4ECF1" transform="translate(224,402)"/>
<path d="M0 0 C1.65 0 3.3 0 5 0 C5 3.96 5 7.92 5 12 C4.67 12 4.34 12 4 12 C4 8.37 4 4.74 4 1 C0.96731398 3.83656989 0.96731398 3.83656989 -1 7 C-1.04254356 5.00045254 -1.04080783 2.99958364 -1 1 C-0.67 0.67 -0.34 0.34 0 0 Z " fill="#9AA6B6" transform="translate(361,384)"/>
<path d="M0 0 C-0.33 0.99 -0.66 1.98 -1 3 C-3.31 3.33 -5.62 3.66 -8 4 C-8.33 3.34 -8.66 2.68 -9 2 C-5.5647952 -0.29013653 -4.014669 -0.17842973 0 0 Z " fill="#EEF9FE" transform="translate(306,407)"/>
<path d="M0 0 C0.99 0.33 1.98 0.66 3 1 C4.1875 3.5625 4.1875 3.5625 5 6 C3.35 6 1.7 6 0 6 C-0.33 6.66 -0.66 7.32 -1 8 C-1.93065133 5.39417629 -2.14917407 4.35801776 -1.0625 1.75 C-0.711875 1.1725 -0.36125 0.595 0 0 Z " fill="#BAC6D2" transform="translate(308,385)"/>
<path d="M0 0 C0.66 0 1.32 0 2 0 C2 4.95 2 9.9 2 15 C1.34 14.67 0.68 14.34 0 14 C0.020625 12.96875 0.04125 11.9375 0.0625 10.875 C0.09699163 7.06694411 0.09699163 7.06694411 -0.5625 3.625 C-0.706875 2.75875 -0.85125 1.8925 -1 1 C-0.67 0.67 -0.34 0.34 0 0 Z " fill="#EDF7FE" transform="translate(308,218)"/>
<path d="M0 0 C0.66 0 1.32 0 2 0 C2.33 0.66 2.66 1.32 3 2 C3.99 2.33 4.98 2.66 6 3 C6 3.99 6 4.98 6 6 C3.69 6 1.38 6 -1 6 C-0.34 5.67 0.32 5.34 1 5 C0.67 3.35 0.34 1.7 0 0 Z " fill="#B3C1CD" transform="translate(338,405)"/>
<path d="M0 0 C1.98 0 3.96 0 6 0 C5.625 2.9375 5.625 2.9375 5 6 C4.01 6.495 4.01 6.495 3 7 C3 6.34 3 5.68 3 5 C2.34 5 1.68 5 1 5 C1 4.34 1 3.68 1 3 C2.32 3 3.64 3 5 3 C5 2.34 5 1.68 5 1 C3.35 1.33 1.7 1.66 0 2 C0 1.34 0 0.68 0 0 Z " fill="#A5B6C0" transform="translate(219,401)"/>
<path d="M0 0 C0.33 0 0.66 0 1 0 C1 3.3 1 6.6 1 10 C0.67 9.34 0.34 8.68 0 8 C-1.32 8 -2.64 8 -4 8 C-4 7.01 -4 6.02 -4 5 C-3.01 4.67 -2.02 4.34 -1 4 C-0.26676204 1.98491642 -0.26676204 1.98491642 0 0 Z " fill="#E5F1F5" transform="translate(173,396)"/>
<path d="M0 0 C1.98 0 3.96 0 6 0 C5.2884375 0.680625 5.2884375 0.680625 4.5625 1.375 C2.90972192 2.93258204 2.90972192 2.93258204 2 5 C0.68 5 -0.64 5 -2 5 C-1.34 3.35 -0.68 1.7 0 0 Z " fill="#F0FBFD" transform="translate(269,391)"/>
<path d="M0 0 C0.99 0 1.98 0 3 0 C1.7508258 3.45925163 0.32472205 6.14693203 -2 9 C-1.125 1.125 -1.125 1.125 0 0 Z " fill="#AAB4B8" transform="translate(218,201)"/>
<path d="M0 0 C2 2 2 2 2.3125 5 C2.209375 5.99 2.10625 6.98 2 8 C1.01 8.66 0.02 9.32 -1 10 C-1.02689216 8.52093108 -1.04634621 7.04172517 -1.0625 5.5625 C-1.07410156 4.73878906 -1.08570313 3.91507812 -1.09765625 3.06640625 C-1 1 -1 1 0 0 Z " fill="#F7FBFD" transform="translate(330,395)"/>
<path d="M0 0 C0.66 0.66 1.32 1.32 2 2 C0.54364629 2.22174933 -0.91522956 2.42698698 -2.375 2.625 C-3.18710938 2.74101562 -3.99921875 2.85703125 -4.8359375 2.9765625 C-5.55007812 2.98429688 -6.26421875 2.99203125 -7 3 C-7.66 2.34 -8.32 1.68 -9 1 C-5.98675805 -0.50662097 -3.31713623 -0.17770373 0 0 Z " fill="#9FADB8" transform="translate(227,126)"/>
<path d="M0 0 C0.33 0 0.66 0 1 0 C1.36923077 5.53846154 1.36923077 5.53846154 -0.5 7.875 C-1.2425 8.431875 -1.2425 8.431875 -2 9 C-2.99 8.67 -3.98 8.34 -5 8 C-4.34 8 -3.68 8 -3 8 C-1.92474806 5.34771188 -0.90543849 2.71631546 0 0 Z " fill="#B4C4CE" transform="translate(261,402)"/>
<path d="M0 0 C0.433125 0.9590625 0.433125 0.9590625 0.875 1.9375 C1.82823451 4.15206079 1.82823451 4.15206079 4 5 C3.67 5.99 3.34 6.98 3 8 C3 7.34 3 6.68 3 6 C1.35 6.66 -0.3 7.32 -2 8 C-1.34 5.36 -0.68 2.72 0 0 Z " fill="#B0BEC7" transform="translate(379,393)"/>
<path d="M0 0 C0.33 0.66 0.66 1.32 1 2 C1.66 2 2.32 2 3 2 C3 2.66 3 3.32 3 4 C1.02 4.33 -0.96 4.66 -3 5 C-3 4.01 -3 3.02 -3 2 C-2.01 1.34 -1.02 0.68 0 0 Z " fill="#F8FBFD" transform="translate(278,397)"/>
<path d="M0 0 C1.9375 0.6875 1.9375 0.6875 4 2 C4.75 4.625 4.75 4.625 5 7 C3.68 7.33 2.36 7.66 1 8 C1.66 6.35 2.32 4.7 3 3 C2.34 3 1.68 3 1 3 C0.67 2.01 0.34 1.02 0 0 Z " fill="#86A1D1" transform="translate(257,391)"/>
<path d="M0 0 C0.66 0.33 1.32 0.66 2 1 C2 5.29 2 9.58 2 14 C1.67 14 1.34 14 1 14 C1 10.7 1 7.4 1 4 C0.34 4 -0.32 4 -1 4 C-0.67 2.68 -0.34 1.36 0 0 Z " fill="#DEE8F0" transform="translate(188,389)"/>
<path d="M0 0 C7.425 0.99 7.425 0.99 15 2 C15 2.33 15 2.66 15 3 C12.87561661 3.08078641 10.7503677 3.13909141 8.625 3.1875 C7.44164062 3.22230469 6.25828125 3.25710937 5.0390625 3.29296875 C3.53472656 3.14794922 3.53472656 3.14794922 2 3 C1.34 2.01 0.68 1.02 0 0 Z " fill="#B9C6DA" transform="translate(217,248)"/>
<path d="M0 0 C2.6875 0.3125 2.6875 0.3125 5 1 C4.67 1.99 4.34 2.98 4 4 C1.69 3.67 -0.62 3.34 -3 3 C-1.8125 1.4375 -1.8125 1.4375 0 0 Z " fill="#ECF5FA" transform="translate(250,406)"/>
<path d="M0 0 C1.32 0.99 2.64 1.98 4 3 C2.68 3 1.36 3 0 3 C0 3.99 0 4.98 0 6 C-1.32 5.34 -2.64 4.68 -4 4 C-2.68 3.34 -1.36 2.68 0 2 C0 1.34 0 0.68 0 0 Z " fill="#B6CACE" transform="translate(208,404)"/>
<path d="M0 0 C1.65 0.33 3.3 0.66 5 1 C4.67 2.65 4.34 4.3 4 6 C3.67 5.01 3.34 4.02 3 3 C1.68 3 0.36 3 -1 3 C-0.67 2.01 -0.34 1.02 0 0 Z " fill="#94B0C1" transform="translate(381,390)"/>
<path d="M0 0 C1.32 0 2.64 0 4 0 C4 1.32 4 2.64 4 4 C3.34 4 2.68 4 2 4 C1.67 4.66 1.34 5.32 1 6 C0.67 4.02 0.34 2.04 0 0 Z " fill="#F4FBF9" transform="translate(114,389)"/>
<path d="M0 0 C1.65 1.65 3.3 3.3 5 5 C4.67 5.66 4.34 6.32 4 7 C2.0625 6.6875 2.0625 6.6875 0 6 C-1 3 -1 3 0 0 Z " fill="#B5BFC4" transform="translate(220,385)"/>
<path d="M0 0 C2.475 0.99 2.475 0.99 5 2 C5 3.32 5 4.64 5 6 C4.34 6 3.68 6 3 6 C3 5.34 3 4.68 3 4 C2.01 3.67 1.02 3.34 0 3 C0 2.01 0 1.02 0 0 Z " fill="#C0CBDD" transform="translate(144,249)"/>
</svg>
