<?xml version="1.0" encoding="UTF-8"?>
<svg version="1.1" xmlns="http://www.w3.org/2000/svg" width="484" height="515">
<path d="M0 0 C3.99092052 1.96045218 6.77170604 4.12980523 9 8 C10.05084418 12.04757901 10.11540058 15.88086406 10.09765625 20.05078125 C10.09553383 21.03899117 10.09553383 21.03899117 10.09336853 22.04716492 C10.087805 24.13565762 10.07525947 26.22404011 10.0625 28.3125 C10.05748028 29.73502449 10.0529182 31.15755066 10.04882812 32.58007812 C10.03870164 36.05346126 10.01911959 39.52660836 10 43 C16.93 43 23.86 43 31 43 C30.95359375 40.93878906 30.9071875 38.87757813 30.859375 36.75390625 C30.83153149 34.72829124 30.80384143 32.70267122 30.78027344 30.67700195 C30.76032005 29.28332186 30.73314681 27.8897237 30.69824219 26.49633789 C30.49729087 18.26028924 30.5962016 11.22754173 35 4 C35.66 4 36.32 4 37 4 C37 3.34 37 2.68 37 2 C42.02628163 -0.98697882 47.33341002 -0.69719824 53 0 C56.67839091 1.32473519 59.07018337 3.27416726 60.93652344 6.73828125 C63.62193543 14.08482668 63.3361978 21.32640148 63.1875 29.0625 C63.17241956 30.41860486 63.15873712 31.77472602 63.14648438 33.13085938 C63.11135836 36.42099602 63.0621664 39.71028183 63 43 C63.73001221 42.97905273 64.46002441 42.95810547 65.2121582 42.93652344 C68.57879383 42.85243073 71.94520745 42.80104721 75.3125 42.75 C76.46041016 42.71648437 77.60832031 42.68296875 78.79101562 42.6484375 C88.9666665 42.53313267 98.10813587 44.55801812 106.1484375 51.109375 C115.2479569 60.40086738 117.2494155 70.12309443 117.17578125 82.67773438 C117.15064453 84.35319336 117.15064453 84.35319336 117.125 86.0625 C117.11597656 87.21427734 117.10695313 88.36605469 117.09765625 89.55273438 C117.07428714 92.36871193 117.04152565 95.18424158 117 98 C117.9379541 97.98428955 118.8759082 97.9685791 119.84228516 97.95239258 C123.34234205 97.90108035 126.8419957 97.86356128 130.34228516 97.83520508 C131.85341727 97.82017457 133.36450618 97.79974436 134.87548828 97.77368164 C137.05512187 97.73704311 139.23417575 97.72021662 141.4140625 97.70703125 C142.7232666 97.6913208 144.0324707 97.67561035 145.38134766 97.65942383 C150.59011334 98.14965646 153.81604586 99.68805081 157.3125 103.5625 C160.74974801 108.52741379 160.58647349 113.07661774 160 119 C157.65189928 124.16582159 154.14983985 126.81468675 149 129 C145.26782227 129.45410156 145.26782227 129.45410156 141.31640625 129.390625 C140.61603745 129.38496521 139.91566864 129.37930542 139.19407654 129.37347412 C136.98282055 129.3512922 134.77325627 129.30113806 132.5625 129.25 C131.05275797 129.22991115 129.54299025 129.21166458 128.03320312 129.1953125 C124.35431146 129.15490732 120.67902228 129.07660197 117 129 C117 136.26 117 143.52 117 151 C120.48626953 150.94779297 120.48626953 150.94779297 124.04296875 150.89453125 C126.30345431 150.87110955 128.56392616 150.85290793 130.82446289 150.83520508 C132.39093107 150.82015378 133.95735736 150.79970793 135.52368164 150.77368164 C137.78021606 150.73713567 140.03619153 150.72023739 142.29296875 150.70703125 C142.98899704 150.69154739 143.68502533 150.67606354 144.40214539 150.66011047 C150.4190798 150.65804568 153.3395871 152.59787355 157.8125 156.375 C160.99891038 160.40100423 160.68995966 164.99908999 160.4765625 169.9296875 C159.7496693 174.61278629 158.72820894 176.04850126 155 179 C147.43952075 182.844467 139.77111392 182.3419278 131.5 182.1875 C130.09116014 182.17242613 128.68230468 182.1587425 127.2734375 182.14648438 C123.84855604 182.11129724 120.42448237 182.06206079 117 182 C117.01047363 182.64437012 117.02094727 183.28874023 117.03173828 183.95263672 C117.07380674 186.92671669 117.09948546 189.90073372 117.125 192.875 C117.14175781 193.88820313 117.15851563 194.90140625 117.17578125 195.9453125 C117.25705024 208.62327442 115.17257531 218.40273273 106.21875 227.88671875 C93.75881149 238.36679415 77.18672812 236.46154872 62 236 C62.07001221 236.76401123 62.14002441 237.52802246 62.2121582 238.31518555 C62.75620674 244.49020858 63.18161282 250.61330263 63.1875 256.8125 C63.19974609 257.51052734 63.21199219 258.20855469 63.22460938 258.92773438 C63.23979708 264.34974552 62.95779585 269.6820436 59.34375 273.9609375 C58.7353125 274.42757813 58.126875 274.89421875 57.5 275.375 C56.8915625 275.85710937 56.283125 276.33921875 55.65625 276.8359375 C51.42337379 279.81093068 47.01963694 279.57058853 42 279 C38.5625 277.1875 38.5625 277.1875 36 275 C35.4225 274.566875 34.845 274.13375 34.25 273.6875 C30.89604899 269.15966614 30.75643433 263.40113831 30.8046875 257.97265625 C30.81435547 256.04389648 30.81435547 256.04389648 30.82421875 254.07617188 C30.84092399 252.73827846 30.85785381 251.40038783 30.875 250.0625 C30.88504678 248.69727217 30.89416964 247.3320372 30.90234375 245.96679688 C30.9258232 242.64445474 30.96169143 239.32220423 31 236 C24.07 236 17.14 236 10 236 C10.02320313 238.09601563 10.04640625 240.19203125 10.0703125 242.3515625 C10.08594052 244.39696651 10.09806726 246.44236369 10.10986328 248.48779297 C10.11987856 249.90188609 10.13349474 251.31595873 10.15087891 252.72998047 C10.17532559 254.77055946 10.18652784 256.81086303 10.1953125 258.8515625 C10.20578613 260.07697754 10.21625977 261.30239258 10.22705078 262.56494141 C9.79226568 269.14281916 7.93294413 272.66863442 3 277 C-1.46646378 279.97764252 -5.76248719 279.61441495 -11 279 C-16.14853681 276.4257316 -19.182008 273.45397599 -21 268 C-21.0845387 265.5589224 -21.11605786 263.14740787 -21.09765625 260.70703125 C-21.0962413 260.00100266 -21.09482635 259.29497406 -21.09336853 258.56755066 C-21.08777764 256.31582374 -21.07522688 254.06419679 -21.0625 251.8125 C-21.05748382 250.28450665 -21.05292112 248.75651173 -21.04882812 247.22851562 C-21.0378112 243.48563865 -21.02055287 239.74283627 -21 236 C-22.0041394 236.02356567 -22.0041394 236.02356567 -23.02856445 236.04760742 C-26.1231203 236.1107725 -29.2175398 236.14924564 -32.3125 236.1875 C-33.36501953 236.21263672 -34.41753906 236.23777344 -35.50195312 236.26367188 C-46.31813096 236.36351352 -56.85588959 234.57391834 -65.0625 227.12890625 C-73.20685663 218.73003847 -75.47749333 209.98970054 -75.3515625 198.43554688 C-75.30128906 196.64213867 -75.30128906 196.64213867 -75.25 194.8125 C-75.23195312 193.57435547 -75.21390625 192.33621094 -75.1953125 191.06054688 C-75.14865581 188.03952635 -75.08320983 185.0201969 -75 182 C-76.34578125 182.02356567 -76.34578125 182.02356567 -77.71875 182.04760742 C-81.08095196 182.09905641 -84.4427292 182.1365042 -87.80517578 182.16479492 C-89.25413661 182.17978417 -90.70305283 182.20018271 -92.15185547 182.22631836 C-106.97156783 182.48676127 -106.97156783 182.48676127 -114 179 C-114 178.34 -114 177.68 -114 177 C-114.66 177 -115.32 177 -116 177 C-119.30953645 171.75990063 -119.89321896 167.0365897 -119 161 C-116.38679161 155.86691209 -113.46062759 152.8202092 -108 151 C-105.48631945 150.9153183 -103.00130626 150.88398115 -100.48828125 150.90234375 C-99.76005661 150.9037587 -99.03183197 150.90517365 -98.28153992 150.90663147 C-95.95848461 150.91222341 -93.63552612 150.92477438 -91.3125 150.9375 C-89.73632952 150.94251604 -88.16015752 150.94707877 -86.58398438 150.95117188 C-82.72258905 150.96133879 -78.86140275 150.98091564 -75 151 C-75 143.74 -75 136.48 -75 129 C-77.31257813 129.03480469 -79.62515625 129.06960937 -82.0078125 129.10546875 C-84.26170621 129.12890309 -86.51558605 129.14709749 -88.76953125 129.16479492 C-90.32916394 129.17982869 -91.88875472 129.20026135 -93.44824219 129.22631836 C-95.69737116 129.26294211 -97.94593847 129.27978021 -100.1953125 129.29296875 C-100.8861795 129.30845261 -101.57704651 129.32393646 -102.28884888 129.33988953 C-106.92988281 129.34148234 -110.01769767 128.34874566 -114 126 C-114 125.34 -114 124.68 -114 124 C-114.66 124 -115.32 124 -116 124 C-119.09849781 118.96494106 -119.88458893 114.76993235 -119 109 C-117.34699402 103.98194612 -114.62648893 101.33703979 -109.96237183 98.80505371 C-106.72740647 97.47792455 -103.52887037 97.50606844 -100.09765625 97.609375 C-99.01380898 97.61786469 -99.01380898 97.61786469 -97.9080658 97.62652588 C-95.62550414 97.64871743 -93.34457802 97.69887451 -91.0625 97.75 C-89.50458014 97.77008756 -87.9466354 97.78833436 -86.38867188 97.8046875 C-82.5918285 97.8485247 -78.79619043 97.91742579 -75 98 C-75.02094727 97.17387207 -75.04189453 96.34774414 -75.06347656 95.49658203 C-75.13230274 92.38415779 -75.18211242 89.2721258 -75.21972656 86.15917969 C-75.24935477 84.16835522 -75.30022326 82.17788292 -75.3515625 80.1875 C-75.4750348 67.96374278 -72.98200782 60.09683494 -64.5078125 51.203125 C-57.50671371 45.052627 -49.99956497 42.857145 -40.82421875 42.90234375 C-39.66728516 42.90556641 -38.51035156 42.90878906 -37.31835938 42.91210938 C-36.12017578 42.92048828 -34.92199219 42.92886719 -33.6875 42.9375 C-31.8612207 42.94426758 -31.8612207 42.94426758 -29.99804688 42.95117188 C-26.99864774 42.96293422 -23.99934911 42.97937174 -21 43 C-21.01571045 42.02651611 -21.0314209 41.05303223 -21.04760742 40.05004883 C-21.10206239 36.42529633 -21.13640626 32.80057974 -21.16479492 29.17553711 C-21.17984622 27.60906893 -21.20029207 26.04264264 -21.22631836 24.47631836 C-21.26286433 22.21978394 -21.27976261 19.96380847 -21.29296875 17.70703125 C-21.30845261 17.01100296 -21.32393646 16.31497467 -21.33988953 15.59785461 C-21.34196231 9.55761443 -19.4153605 6.63310827 -15.5625 2.1875 C-11.0634605 -1.37564908 -5.40959636 -0.80884225 0 0 Z M-44 76 C-44.09825968 77.64258701 -44.12631963 79.28941333 -44.12698364 80.93493652 C-44.12980347 82.00346359 -44.13262329 83.07199066 -44.13552856 84.17289734 C-44.13350433 85.35527481 -44.1314801 86.53765228 -44.12939453 87.75585938 C-44.13114685 88.99310257 -44.13289917 90.23034576 -44.13470459 91.50508118 C-44.13836286 94.90789441 -44.13748962 98.3106472 -44.1343255 101.71345711 C-44.13180159 105.26710214 -44.13413953 108.82074452 -44.13571167 112.37438965 C-44.13753327 118.34318508 -44.1351273 124.31196816 -44.13037109 130.28076172 C-44.12492849 137.19094568 -44.12669115 144.10110015 -44.1321975 151.0112834 C-44.13672889 156.93399035 -44.13737905 162.85668841 -44.13475883 168.77939653 C-44.1331962 172.32125361 -44.13300191 175.86309681 -44.13629532 179.404953 C-44.13970828 183.35136063 -44.13498386 187.29773496 -44.12939453 191.24414062 C-44.13141876 192.4265181 -44.13344299 193.60889557 -44.13552856 194.82710266 C-44.13270874 195.89562973 -44.12988892 196.9641568 -44.12698364 198.06506348 C-44.12660662 198.99938454 -44.12622959 199.9337056 -44.12584114 200.89633942 C-44.2342874 202.9869197 -44.2342874 202.9869197 -43 204 C-34.68655911 205.04196506 -26.33215371 205.1270065 -17.9675293 205.02172852 C-16.84397034 205.01212097 -15.72041138 205.00251343 -14.56280518 204.99261475 C-10.89987157 204.95999625 -7.23707159 204.91952601 -3.57421875 204.87890625 C-1.01447501 204.85456869 1.54527348 204.83072703 4.10502625 204.80735779 C10.12181482 204.75124231 16.1385329 204.69017736 22.15524596 204.62663645 C29.01389972 204.55448606 35.87261068 204.48877702 42.73133337 204.42356598 C56.82096315 204.28946318 70.91050361 204.14741122 85 204 C86.25439225 201.49121549 86.12584028 199.79103008 86.12698364 196.98277283 C86.12980347 195.92128525 86.13262329 194.85979767 86.13552856 193.7661438 C86.13350433 192.59671234 86.1314801 191.42728088 86.12939453 190.22241211 C86.13114685 188.99477646 86.13289917 187.76714081 86.13470459 186.50230408 C86.13835892 183.13054056 86.13749225 179.75883817 86.1343255 176.38707805 C86.13179901 172.86413536 86.1341402 169.34119535 86.13571167 165.81825256 C86.13753228 159.90251189 86.13512965 153.9867837 86.13037109 148.07104492 C86.12492617 141.22275606 86.12669324 134.37449696 86.1321975 127.52620882 C86.13672873 121.65443667 86.13737921 115.7826735 86.13475883 109.91090018 C86.13319643 106.40035709 86.13300132 102.88982801 86.13629532 99.37928581 C86.13970806 95.4689098 86.13498415 91.55856739 86.12939453 87.64819336 C86.13243088 85.89100983 86.13243088 85.89100983 86.13552856 84.09832764 C86.13270874 83.03965988 86.12988892 81.98099213 86.12698364 80.89024353 C86.12660662 79.96459563 86.12622959 79.03894773 86.12584114 78.0852499 C86.23199777 76.01092192 86.23199777 76.01092192 85 75 C83.34474177 74.901712 81.68527328 74.87368024 80.02709961 74.87301636 C78.41168777 74.86878662 78.41168777 74.86878662 76.76364136 74.86447144 C74.97604904 74.86750778 74.97604904 74.86750778 73.15234375 74.87060547 C71.90534698 74.86885315 70.65835022 74.86710083 69.37356567 74.86529541 C65.94389396 74.86163711 62.51428221 74.86251039 59.0846138 74.8656745 C55.50294155 74.86819839 51.92127195 74.86586048 48.33959961 74.86428833 C42.32372576 74.86246672 36.30786417 74.86487272 30.29199219 74.86962891 C23.32727673 74.87507151 16.36259054 74.87330885 9.39787579 74.8678025 C3.42846011 74.86327113 -2.54094674 74.86262094 -8.51036358 74.86524117 C-12.0801663 74.86680381 -15.64995524 74.86699807 -19.21975708 74.86370468 C-23.19729763 74.86029175 -27.17480514 74.86501611 -31.15234375 74.87060547 C-32.34407196 74.86858124 -33.53580017 74.86655701 -34.76364136 74.86447144 C-35.84058258 74.86729126 -36.9175238 74.87011108 -38.02709961 74.87301636 C-39.43964272 74.8735819 -39.43964272 74.8735819 -40.88072205 74.87415886 C-42.9850886 74.76377199 -42.9850886 74.76377199 -44 76 Z " fill="#F7F8F9" transform="translate(220,110)"/>
<path d="M0 0 C1.29151474 -0.0127597 2.58302948 -0.02551941 3.91368103 -0.03866577 C5.32990368 -0.04172297 6.74612832 -0.04395098 8.16235352 -0.04541016 C9.60962559 -0.05183447 11.05689634 -0.05856255 12.50416565 -0.06558228 C15.53975435 -0.07756736 18.57522914 -0.08126183 21.61083984 -0.08007812 C25.50290967 -0.07987482 29.39425022 -0.10718224 33.28614712 -0.14162254 C36.27585716 -0.16384733 39.26539043 -0.16791705 42.25517464 -0.16685867 C43.69013039 -0.16922112 45.12509054 -0.17808085 46.55996513 -0.19352341 C48.56592308 -0.21309088 50.57209428 -0.20484671 52.578125 -0.1953125 C53.72014877 -0.19816254 54.86217255 -0.20101257 56.0388031 -0.20394897 C58.85375977 0.29052734 58.85375977 0.29052734 60.72172546 1.94650269 C62.14287025 4.88916831 62.23460425 7.01303241 62.24194336 10.28076172 C62.25139984 11.4888147 62.26085632 12.69686768 62.27059937 13.94152832 C62.26452667 15.2426355 62.25845398 16.54374268 62.25219727 17.88427734 C62.25421914 19.23661455 62.25713153 20.5889507 62.26089478 21.94128418 C62.26531283 24.77248538 62.25890418 27.60340222 62.24487305 30.43457031 C62.22778098 34.05961493 62.23762501 37.68399318 62.25559044 41.30901337 C62.26644258 44.10061646 62.26297548 46.89206215 62.25520706 49.68367004 C62.25223886 51.6689599 62.26133346 53.65425592 62.27059937 55.63952637 C62.25641464 57.45160583 62.25641464 57.45160583 62.24194336 59.30029297 C62.23955658 60.36300415 62.2371698 61.42571533 62.23471069 62.52062988 C61.78994241 65.75454385 61.29688781 67.11683279 58.85375977 69.29052734 C56.08349609 69.78500366 56.08349609 69.78500366 52.68579102 69.77636719 C51.41437256 69.78252045 50.1429541 69.78867371 48.83300781 69.79501343 C47.44408446 69.78121701 46.05516827 69.766683 44.66625977 69.75146484 C43.24284024 69.74908025 41.81941753 69.74817513 40.39599609 69.74868774 C37.4132923 69.74555976 34.4310692 69.72899583 31.44848633 69.70214844 C27.62499552 69.66816818 23.80203293 69.66051985 19.97840881 69.6620388 C17.03929602 69.66149496 14.10029874 69.65052565 11.16122437 69.63603592 C9.75142287 69.62967104 8.34160829 69.62572975 6.93179321 69.6242485 C4.96172381 69.61991241 2.99170349 69.60082497 1.02172852 69.58105469 C-0.09951416 69.57343109 -1.22075684 69.5658075 -2.37597656 69.55795288 C-5.14624023 69.29052734 -5.14624023 69.29052734 -8.14624023 67.29052734 C-8.52046204 64.5958252 -8.52046204 64.5958252 -8.51855469 61.12841797 C-8.52478348 59.83367554 -8.53101227 58.53893311 -8.53742981 57.20495605 C-8.52874201 55.78555925 -8.51942405 54.36616619 -8.50952148 52.94677734 C-8.50900303 51.49711101 -8.50952015 50.04744396 -8.5110321 48.59777832 C-8.51094232 45.55791748 -8.50050089 42.51832152 -8.48242188 39.47851562 C-8.45973425 35.57756682 -8.45918986 31.67700522 -8.46593952 27.77600861 C-8.46927744 24.782049 -8.46265281 21.78817804 -8.45281029 18.79423523 C-8.44895491 17.35569218 -8.44781147 15.91713927 -8.44939613 14.47859192 C-8.44976605 12.46991776 -8.43568608 10.46125648 -8.42089844 8.45263672 C-8.41629105 7.30839233 -8.41168365 6.16414795 -8.40693665 4.98522949 C-7.87939175 -0.46776608 -4.67691401 0.03124257 0 0 Z " fill="#F7F8F9" transform="translate(214.146240234375,214.70947265625)"/>
<path d="M0 0 C0.75 1.625 0.75 1.625 1 4 C-0.8125 7.25 -0.8125 7.25 -3 10 C-3.66 10 -4.32 10 -5 10 C-5.03758423 11.27061279 -5.03758423 11.27061279 -5.07592773 12.56689453 C-5.17147857 15.73155558 -5.27068566 18.89607563 -5.37231445 22.06054688 C-5.41543088 23.42606176 -5.45712068 24.79162252 -5.49731445 26.15722656 C-5.55558554 28.1283719 -5.61953736 30.09934668 -5.68359375 32.0703125 C-5.72025146 33.25383301 -5.75690918 34.43735352 -5.79467773 35.65673828 C-5.98990218 38.83557719 -6.41476502 41.87180449 -7 45 C-7.96824707 45.01458252 -8.93649414 45.02916504 -9.93408203 45.04418945 C-13.54626324 45.10241567 -17.15783683 45.17964536 -20.76953125 45.26245117 C-22.32900081 45.29558667 -23.88858702 45.3236537 -25.44824219 45.34643555 C-27.69776852 45.38019281 -29.94623687 45.43251504 -32.1953125 45.48828125 C-32.8861795 45.49467117 -33.57704651 45.5010611 -34.28884888 45.50764465 C-38.88308542 45.64538275 -42.0446536 46.68867854 -46 49 C-46.33 48.34 -46.66 47.68 -47 47 C-42.31752551 44.23829566 -38.52830149 43.58750718 -33.1953125 43.70703125 C-32.1093428 43.71339851 -32.1093428 43.71339851 -31.00143433 43.71989441 C-28.70889713 43.73657028 -26.41726754 43.77419919 -24.125 43.8125 C-22.56251278 43.82756129 -21.00001165 43.84124716 -19.4375 43.85351562 C-15.62465495 43.88643707 -11.81248089 43.93813998 -8 44 C-8.02094727 43.17387207 -8.04189453 42.34774414 -8.06347656 41.49658203 C-8.13230274 38.38415779 -8.18211242 35.2721258 -8.21972656 32.15917969 C-8.24935477 30.16835522 -8.30022326 28.17788292 -8.3515625 26.1875 C-8.45453518 15.99320516 -7.16604228 7.67790244 0 0 Z " fill="#B8C1D1" transform="translate(153,164)"/>
<path d="M0 0 C-4.72230311 2.52980524 -8.50632823 3.12496771 -13.859375 3.09765625 C-14.97441406 3.09443359 -16.08945312 3.09121094 -17.23828125 3.08789062 C-18.39714844 3.07951172 -19.55601562 3.07113281 -20.75 3.0625 C-21.92433594 3.05798828 -23.09867187 3.05347656 -24.30859375 3.04882812 C-27.20578072 3.03705094 -30.10286454 3.02060326 -33 3 C-32.9292627 3.76256104 -32.85852539 4.52512207 -32.78564453 5.31079102 C-32.23331473 11.53445101 -31.83986795 17.68985025 -31.875 23.9375 C-31.87113281 24.65228516 -31.86726563 25.36707031 -31.86328125 26.10351562 C-31.87023343 29.86117159 -32.09933243 33.34729262 -33 37 C-33.33 37 -33.66 37 -34 37 C-34.495 19.675 -34.495 19.675 -35 2 C-31.21171569 1.24234314 -28.02754022 0.82471749 -24.21875 0.68359375 C-23.12949219 0.64169922 -22.04023438 0.59980469 -20.91796875 0.55664062 C-19.79003906 0.51732422 -18.66210938 0.47800781 -17.5 0.4375 C-15.80810547 0.37272461 -15.80810547 0.37272461 -14.08203125 0.30664062 C-9.38507939 0.13154715 -4.70072052 -0.02522076 0 0 Z " fill="#B4BCC9" transform="translate(315,343)"/>
<path d="M0 0 C3.05293168 3.05293168 2.96519354 6.009775 3.11352539 10.22973633 C3.10828857 11.41849365 3.10305176 12.60725098 3.09765625 13.83203125 C3.09443359 15.12431641 3.09121094 16.41660156 3.08789062 17.74804688 C3.07953665 19.10286526 3.07107172 20.45768297 3.0625 21.8125 C3.05748 23.18684735 3.05291797 24.56119645 3.04882812 25.93554688 C3.03705677 29.29038341 3.01912174 32.6451973 3 36 C11.58 36 20.16 36 29 36 C29 36.33 29 36.66 29 37 C20.09 37 11.18 37 2 37 C1.67 37.66 1.34 38.32 1 39 C-0.25282725 35.24151826 -0.12381835 31.74509081 -0.09765625 27.83203125 C-0.0962413 27.03721848 -0.09482635 26.2424057 -0.09336853 25.42350769 C-0.08777378 22.88646675 -0.07522228 20.34951425 -0.0625 17.8125 C-0.05748432 16.09179815 -0.05292153 14.37109492 -0.04882812 12.65039062 C-0.03780607 8.4335597 -0.02054506 4.21679484 0 0 Z " fill="#A5B5C8" transform="translate(280,117)"/>
<path d="M0 0 C1.31134718 3.90313437 1.03043509 7.77542704 0.87890625 11.828125 C0.85529526 12.57713074 0.83168427 13.32613647 0.80735779 14.09783936 C0.73099344 16.48209888 0.64685283 18.86601105 0.5625 21.25 C0.50925201 22.86977486 0.4565118 24.48956651 0.40429688 26.109375 C0.27541537 30.07313521 0.13956072 34.03660201 0 38 C-0.99 38 -1.98 38 -3 38 C-3.33 38.66 -3.66 39.32 -4 40 C-4 39.34 -4 38.68 -4 38 C-4.71542969 38.18433594 -5.43085938 38.36867187 -6.16796875 38.55859375 C-9.22781608 39.03550789 -11.3083481 38.7434411 -14.3125 38.0625 C-15.19550781 37.86785156 -16.07851562 37.67320312 -16.98828125 37.47265625 C-17.98408203 37.23869141 -17.98408203 37.23869141 -19 37 C-19 36.67 -19 36.34 -19 36 C-13.39 36 -7.78 36 -2 36 C-2.02320313 33.90398437 -2.04640625 31.80796875 -2.0703125 29.6484375 C-2.08594052 27.60303349 -2.09806726 25.55763631 -2.10986328 23.51220703 C-2.11987856 22.09811391 -2.13349474 20.68404127 -2.15087891 19.27001953 C-2.17532559 17.22944054 -2.18652784 15.18913697 -2.1953125 13.1484375 C-2.20578613 11.92302246 -2.21625977 10.69760742 -2.22705078 9.43505859 C-1.99746626 5.96166703 -1.2511457 3.23393024 0 0 Z " fill="#9BA7B2" transform="translate(253,117)"/>
<path d="M0 0 C0.625 1.8125 0.625 1.8125 1 4 C0.01 5.485 0.01 5.485 -1 7 C-1.37032217 10.29770342 -1.37032217 10.29770342 -1.4140625 14.07421875 C-1.43342865 14.7580513 -1.4527948 15.44188385 -1.4727478 16.1464386 C-1.53243997 18.32666625 -1.57888631 20.50694702 -1.625 22.6875 C-1.66318943 24.1673405 -1.70224174 25.647159 -1.7421875 27.12695312 C-1.83813202 30.7511005 -1.92220151 34.37541257 -2 38 C-2.99 38.495 -2.99 38.495 -4 39 C-4.07436755 34.3918813 -4.12870394 29.78411486 -4.16479492 25.17553711 C-4.17984622 23.60906893 -4.20029207 22.04264264 -4.22631836 20.47631836 C-4.26286433 18.21978394 -4.27976261 15.96380847 -4.29296875 13.70703125 C-4.30845261 13.01100296 -4.32393646 12.31497467 -4.33988953 11.59785461 C-4.34139757 7.2033226 -3.62130022 4.53222795 -1 1 C-0.67 0.67 -0.34 0.34 0 0 Z " fill="#BCC7D4" transform="translate(203,114)"/>
<path d="M0 0 C0.66 0 1.32 0 2 0 C2.33917131 4.14537705 2.67026953 8.29136218 3 12.4375 C3.09539062 13.60216797 3.19078125 14.76683594 3.2890625 15.96679688 C3.79138362 22.33551102 4.1093176 28.61175303 4 35 C1.61668239 30.39225263 0.84804258 26.77391586 0.68359375 21.58203125 C0.64169922 20.32841797 0.59980469 19.07480469 0.55664062 17.78320312 C0.51732422 16.47287109 0.47800781 15.16253906 0.4375 13.8125 C0.39429008 12.47720022 0.350675 11.14191348 0.30664062 9.80664062 C0.20043498 6.53786703 0.09839003 3.26901667 0 0 Z " fill="#D4DDE8" transform="translate(144,291)"/>
<path d="M0 0 C0.93779297 0.00322266 1.87558594 0.00644531 2.84179688 0.00976562 C4.30649414 0.02233398 4.30649414 0.02233398 5.80078125 0.03515625 C6.78884766 0.03966797 7.77691406 0.04417969 8.79492188 0.04882812 C11.23443599 0.06061322 13.67382814 0.07706614 16.11328125 0.09765625 C16.11328125 0.42765625 16.11328125 0.75765625 16.11328125 1.09765625 C15.24376831 1.10381958 15.24376831 1.10381958 14.35668945 1.11010742 C11.71204016 1.14314902 9.06966286 1.21379889 6.42578125 1.28515625 C5.51376953 1.29095703 4.60175781 1.29675781 3.66210938 1.30273438 C-2.12540959 1.48159128 -2.12540959 1.48159128 -6.90625 4.6484375 C-7.55980469 5.45667969 -8.21335937 6.26492188 -8.88671875 7.09765625 C-9.54671875 7.09765625 -10.20671875 7.09765625 -10.88671875 7.09765625 C-11.21671875 8.08765625 -11.54671875 9.07765625 -11.88671875 10.09765625 C-12.87671875 10.09765625 -13.86671875 10.09765625 -14.88671875 10.09765625 C-13.53516593 5.67439247 -11.68781437 3.69352643 -7.88671875 1.09765625 C-4.94539984 0.11721661 -3.0617021 -0.01855577 0 0 Z " fill="#9EAAB8" transform="translate(116.88671875,260.90234375)"/>
<path d="M0 0 C0.2475 0.639375 0.495 1.27875 0.75 1.9375 C1.79688294 4.19895007 1.79688294 4.19895007 4.0625 4.5625 C5.0215625 4.7790625 5.0215625 4.7790625 6 5 C6.33 5.99 6.66 6.98 7 8 C9.75078884 8.91692961 11.35948913 9.10886083 14.1875 9.0625 C15.445625 9.041875 16.70375 9.02125 18 9 C18 8.34 18 7.68 18 7 C19.98 7 21.96 7 24 7 C21.70107451 9.53674537 19.84040427 10.86717015 16.4296875 11.40625 C10.46089917 11.60141474 6.60333251 11.14299926 2 7 C0.0625 4.9375 0.0625 4.9375 -1 3 C-0.67 2.01 -0.34 1.02 0 0 Z " fill="#A5B4BF" transform="translate(201,378)"/>
<path d="M0 0 C1.07765625 0.01804687 2.1553125 0.03609375 3.265625 0.0546875 C4.49539063 0.08949219 4.49539063 0.08949219 5.75 0.125 C5.75 0.455 5.75 0.785 5.75 1.125 C4.84507812 1.19847656 4.84507812 1.19847656 3.921875 1.2734375 C3.12265625 1.34820312 2.3234375 1.42296875 1.5 1.5 C0.31664062 1.60441406 0.31664062 1.60441406 -0.890625 1.7109375 C-3.39722596 2.15083767 -5.09822646 2.77324483 -7.25 4.125 C-8.24 5.61 -8.24 5.61 -9.25 7.125 C-10.57 6.795 -11.89 6.465 -13.25 6.125 C-12.92 5.465 -12.59 4.805 -12.25 4.125 C-11.59 4.125 -10.93 4.125 -10.25 4.125 C-10.25 3.465 -10.25 2.805 -10.25 2.125 C-6.7733662 -0.01836161 -4.03770805 -0.08777626 0 0 Z " fill="#C1C9D3" transform="translate(267.25,109.875)"/>
<path d="M0 0 C4.875 3.75 4.875 3.75 6 6 C6.07092842 8.2072923 6.08415025 10.41667452 6.0625 12.625 C6.05347656 13.81351562 6.04445313 15.00203125 6.03515625 16.2265625 C6.02355469 17.14179688 6.01195312 18.05703125 6 19 C5.34 19.33 4.68 19.66 4 20 C4 15.05 4 10.1 4 5 C3.01 5 2.02 5 1 5 C0.67 3.35 0.34 1.7 0 0 Z " fill="#B0BBC8" transform="translate(374,264)"/>
<path d="M0 0 C0.75 1.625 0.75 1.625 1 4 C-0.8125 7.25 -0.8125 7.25 -3 10 C-3.66 10 -4.32 10 -5 10 C-5.33 11.65 -5.66 13.3 -6 15 C-7 12 -7 12 -6.07421875 9.58984375 C-5.61660156 8.71457031 -5.15898437 7.83929688 -4.6875 6.9375 C-4.23761719 6.05964844 -3.78773438 5.18179688 -3.32421875 4.27734375 C-2 2 -2 2 0 0 Z " fill="#B7CBD7" transform="translate(153,164)"/>
<path d="M0 0 C6.43311296 -0.09507063 12.65758005 -0.15316726 19 1 C18.01 1.33 17.02 1.66 16 2 C15.67 2.66 15.34 3.32 15 4 C15 3.34 15 2.68 15 2 C14.28457031 2.18433594 13.56914062 2.36867187 12.83203125 2.55859375 C9.77218392 3.03550789 7.6916519 2.7434411 4.6875 2.0625 C3.80449219 1.86785156 2.92148438 1.67320312 2.01171875 1.47265625 C1.34785156 1.31667969 0.68398437 1.16070312 0 1 C0 0.67 0 0.34 0 0 Z " fill="#D6DEEA" transform="translate(234,153)"/>
<path d="M0 0 C0.75 1.6875 0.75 1.6875 1 4 C-0.9375 6.75 -0.9375 6.75 -3 9 C-3.36923077 3.46153846 -3.36923077 3.46153846 -1.5 1.125 C-1.005 0.75375 -0.51 0.3825 0 0 Z " fill="#C6D1DD" transform="translate(203,114)"/>
<path d="M0 0 C2.75 -0.25 2.75 -0.25 6 0 C8.375 2 8.375 2 10 4 C6.28111761 3.49287967 3.26545761 2.88391785 0 1 C0 0.67 0 0.34 0 0 Z " fill="#A8B3C5" transform="translate(160,340)"/>
<path d="M0 0 C2.64 0 5.28 0 8 0 C8 0.33 8 0.66 8 1 C7.071875 1.28875 6.14375 1.5775 5.1875 1.875 C1.90208333 2.8875 1.90208333 2.8875 -1 5 C-0.67 3.35 -0.34 1.7 0 0 Z " fill="#E1EAF2" transform="translate(207,216)"/>
<path d="M0 0 C1.98 0.66 3.96 1.32 6 2 C5.67 2.66 5.34 3.32 5 4 C2.9375 4.625 2.9375 4.625 1 5 C1 4.34 1 3.68 1 3 C0.34 2.67 -0.32 2.34 -1 2 C-0.67 1.34 -0.34 0.68 0 0 Z " fill="#CED5D5" transform="translate(315,338)"/>
<path d="M0 0 C-0.99 0.33 -1.98 0.66 -3 1 C-3.33 1.99 -3.66 2.98 -4 4 C-4.99 4 -5.98 4 -7 4 C-6.67 2.68 -6.34 1.36 -6 0 C-2.25 -1.125 -2.25 -1.125 0 0 Z " fill="#DDE3EA" transform="translate(109,267)"/>
<path d="M0 0 C3.82946843 1.45255699 5.12050295 3.42895561 7 7 C4.08482708 5.92598892 2.22189824 5.22189824 0 3 C0 2.01 0 1.02 0 0 Z " fill="#B5BDC8" transform="translate(324,161)"/>
<path d="M0 0 C2.5654594 2.5654594 2.54046087 4.47686668 3 8 C2.01 8.33 1.02 8.66 0 9 C0 6.03 0 3.06 0 0 Z " fill="#C9D7DE" transform="translate(280,117)"/>
</svg>
